<svg id="Layer_1" data-name="Layer 1" xmlns="http://www.w3.org/2000/svg" xmlns:xlink="http://www.w3.org/1999/xlink" viewBox="0 0 216 216">
  <defs>
    <linearGradient id="linear-gradient" x1="108" y1="0.04" x2="108" y2="263.87" gradientUnits="userSpaceOnUse">
      <stop offset="0.07" stop-color="#ff553f"/>
      <stop offset="0.22" stop-color="#fa513c"/>
      <stop offset="0.42" stop-color="#ea4435"/>
      <stop offset="0.63" stop-color="#d13029"/>
      <stop offset="0.86" stop-color="#ad1418"/>
      <stop offset="1" stop-color="#94000c"/>
    </linearGradient>
    <clipPath id="clip-path">
      <path d="M0,105.5H41.19A66.85,66.85,0,0,1,105.5,41.19V0A108,108,0,0,0,0,105.5ZM110.5,0V41.19a66.85,66.85,0,0,1,64.31,64.31H216A108,108,0,0,0,110.5,0ZM174.81,110.5a66.85,66.85,0,0,1-64.31,64.31V216A108,108,0,0,0,216,110.5Zm-133.62,0H0A108,108,0,0,0,105.5,216V174.81A66.85,66.85,0,0,1,41.19,110.5Zm99.7,0L110.5,140.89v22.05a55,55,0,0,0,52.44-52.44Zm-87.83-5h22L105.5,75.11v-22A55,55,0,0,0,53.06,105.5ZM110.5,53.06v22l30.39,30.39h22.05A55,55,0,0,0,110.5,53.06Zm30.39,57.44L110.5,140.89v22.05a55,55,0,0,0,52.44-52.44Zm-65.78,0h-22a55,55,0,0,0,52.44,52.44V140.89Zm54.42-3-2.73-2.73L108.47,86.43a.72.72,0,0,0-1,0L86.39,107.5a.71.71,0,0,0,0,1l21.06,21.06a.72.72,0,0,0,1,0l21.06-21.06A.71.71,0,0,0,129.53,107.5Z" fill="none"/>
    </clipPath>
  </defs>
  <g>
    <path d="M0,105.5H41.19A66.85,66.85,0,0,1,105.5,41.19V0A108,108,0,0,0,0,105.5ZM110.5,0V41.19a66.85,66.85,0,0,1,64.31,64.31H216A108,108,0,0,0,110.5,0ZM174.81,110.5a66.85,66.85,0,0,1-64.31,64.31V216A108,108,0,0,0,216,110.5Zm-133.62,0H0A108,108,0,0,0,105.5,216V174.81A66.85,66.85,0,0,1,41.19,110.5Zm99.7,0L110.5,140.89v22.05a55,55,0,0,0,52.44-52.44Zm-87.83-5h22L105.5,75.11v-22A55,55,0,0,0,53.06,105.5ZM110.5,53.06v22l30.39,30.39h22.05A55,55,0,0,0,110.5,53.06Zm30.39,57.44L110.5,140.89v22.05a55,55,0,0,0,52.44-52.44Zm-65.78,0h-22a55,55,0,0,0,52.44,52.44V140.89Zm54.42-3-2.73-2.73L108.47,86.43a.72.72,0,0,0-1,0L86.39,107.5a.71.71,0,0,0,0,1l21.06,21.06a.72.72,0,0,0,1,0l21.06-21.06A.71.71,0,0,0,129.53,107.5Z" fill="url(#linear-gradient)"/>
    <g clip-path="url(#clip-path)">
      <g>
        <polygon points="63.4 186.5 43.51 220.93 23.64 186.5 43.51 152.06 63.4 186.5" fill="#fff" opacity="0.3"/>
        <polygon points="84.99 223.79 65.1 258.22 45.23 223.79 65.1 189.35 84.99 223.79" fill="#fff" opacity="0.3"/>
        <polygon points="106.62 186.25 86.73 220.68 66.86 186.25 86.73 151.82 106.62 186.25" fill="#fff" opacity="0.3"/>
        <polygon points="128.22 224.05 108.33 258.48 88.46 224.05 108.33 189.62 128.22 224.05" fill="#fff" opacity="0.3"/>
        <polygon points="149.83 186.62 129.94 221.05 110.07 186.62 129.94 152.19 149.83 186.62" fill="#fff" opacity="0.3"/>
        <polygon points="171.42 223.91 151.53 258.34 131.66 223.91 151.53 189.48 171.42 223.91" fill="#fff" opacity="0.3"/>
        <polygon points="193.05 186.38 173.16 220.8 153.29 186.38 173.16 151.94 193.05 186.38" fill="#fff" opacity="0.3"/>
      </g>
    </g>
  </g>
</svg>
