<svg id="Layer_1" data-name="Layer 1" xmlns="http://www.w3.org/2000/svg" xmlns:xlink="http://www.w3.org/1999/xlink" viewBox="0 0 216 216">
  <defs>
    <linearGradient id="linear-gradient" x1="108" y1="216" x2="108" gradientUnits="userSpaceOnUse">
      <stop offset="0" stop-color="#94000c"/>
      <stop offset="0.14" stop-color="#ad1418"/>
      <stop offset="0.37" stop-color="#d13029"/>
      <stop offset="0.58" stop-color="#ea4435"/>
      <stop offset="0.78" stop-color="#fa513c"/>
      <stop offset="0.93" stop-color="#ff553f"/>
    </linearGradient>
    <clipPath id="clip-path">
      <path d="M108,0A73.38,73.38,0,0,0,68,134.87l.72.49a21.83,21.83,0,0,1,8.75,14.46l2,13.11h0l1.27,8.29L82.33,182l.66,4.38.86,5.6a.81.81,0,0,0,.21.41l23.42,23.42a.75.75,0,0,0,1,0l23.42-23.42a.81.81,0,0,0,.21-.41l1-6.46.7-4.58,1.15-7.53,1.34-8.8h0l2.25-14.76A21.72,21.72,0,0,1,148,134.87h0A73.39,73.39,0,0,0,108,0Zm34.29,73.85-33.48,33.48a1.14,1.14,0,0,1-1.62,0L73.71,73.85a1.12,1.12,0,0,1,0-1.6l33.48-33.48a1.14,1.14,0,0,1,1.62,0L138,67.91l4.34,4.34A1.12,1.12,0,0,1,142.29,73.85Zm-13-.52L108.37,94.22a.71.71,0,0,1-1,0L86.47,73.33a.72.72,0,0,1,0-1l20.89-20.88a.71.71,0,0,1,1,0l20.88,20.88A.7.7,0,0,1,129.25,73.33Z" fill="none"/>
    </clipPath>
  </defs>
  <g>
    <path d="M108,0A73.38,73.38,0,0,0,68,134.87l.72.49a21.83,21.83,0,0,1,8.75,14.46l2,13.11h0l1.27,8.29L82.33,182l.66,4.38.86,5.6a.81.81,0,0,0,.21.41l23.42,23.42a.75.75,0,0,0,1,0l23.42-23.42a.81.81,0,0,0,.21-.41l1-6.46.7-4.58,1.15-7.53,1.34-8.8h0l2.25-14.76A21.72,21.72,0,0,1,148,134.87h0A73.39,73.39,0,0,0,108,0Zm34.29,73.85-33.48,33.48a1.14,1.14,0,0,1-1.62,0L73.71,73.85a1.12,1.12,0,0,1,0-1.6l33.48-33.48a1.14,1.14,0,0,1,1.62,0L138,67.91l4.34,4.34A1.12,1.12,0,0,1,142.29,73.85Zm-13-.52L108.37,94.22a.71.71,0,0,1-1,0L86.47,73.33a.72.72,0,0,1,0-1l20.89-20.88a.71.71,0,0,1,1,0l20.88,20.88A.7.7,0,0,1,129.25,73.33Z" fill="url(#linear-gradient)"/>
    <g clip-path="url(#clip-path)">
      <g>
        <polygon points="63.05 219.43 43.17 253.85 23.3 219.43 43.17 184.99 63.05 219.43" fill="#fff" opacity="0.3"/>
        <polygon points="106.27 219.18 86.39 253.6 66.52 219.18 86.39 184.74 106.27 219.18" fill="#fff" opacity="0.3"/>
        <polygon points="84.66 182.31 64.78 216.74 44.9 182.31 64.78 147.88 84.66 182.31" fill="#fff" opacity="0.3"/>
        <polygon points="106.27 144.88 86.39 179.31 66.51 144.88 86.39 110.45 106.27 144.88" fill="#fff" opacity="0.3"/>
        <polygon points="127.86 182.18 107.98 216.6 88.1 182.18 107.98 147.74 127.86 182.18" fill="#fff" opacity="0.3"/>
        <polygon points="149.49 144.64 129.61 179.06 109.73 144.64 129.61 110.2 149.49 144.64" fill="#fff" opacity="0.3"/>
        <polygon points="149.48 219.55 129.6 253.98 109.73 219.55 129.6 185.11 149.48 219.55" fill="#fff" opacity="0.3"/>
        <polygon points="192.71 219.3 172.82 253.73 152.95 219.3 172.82 184.87 192.71 219.3" fill="#fff" opacity="0.3"/>
        <polygon points="171.09 182.43 151.21 216.86 131.34 182.43 151.21 148 171.09 182.43" fill="#fff" opacity="0.3"/>
      </g>
    </g>
  </g>
</svg>
