<svg id="Layer_1" data-name="Layer 1" xmlns="http://www.w3.org/2000/svg" xmlns:xlink="http://www.w3.org/1999/xlink" viewBox="0 0 216 216">
  <defs>
    <linearGradient id="linear-gradient" x1="108" y1="213.4" x2="108" y2="2.6" gradientUnits="userSpaceOnUse">
      <stop offset="0.11" stop-color="#070"/>
      <stop offset="0.21" stop-color="#0c8100"/>
      <stop offset="0.39" stop-color="#2b9c00"/>
      <stop offset="0.62" stop-color="#5ec800"/>
      <stop offset="0.69" stop-color="#6ed600"/>
    </linearGradient>
    <clipPath id="clip-path">
      <path d="M208.2,2.6H175.4a7.35,7.35,0,0,0-7.47,7.47V43.2a2.49,2.49,0,0,0,.32,1.63A5.43,5.43,0,0,0,166,44.5H132.85A7.35,7.35,0,0,0,125.38,52V85.1a4.07,4.07,0,0,0-1.95-.33H90.62a7.35,7.35,0,0,0-7.47,7.47V124.4H48.4a7.35,7.35,0,0,0-7.47,7.47v33.78H7.47A7.35,7.35,0,0,0,0,173.13v32.8a7.35,7.35,0,0,0,7.47,7.47H216v-203a7.9,7.9,0,0,0-7.8-7.79Z" fill="none"/>
    </clipPath>
  </defs>
  <g>
    <path d="M208.2,2.6H175.4a7.35,7.35,0,0,0-7.47,7.47V43.2a2.44,2.44,0,0,0,.32,1.62A5.59,5.59,0,0,0,166,44.5H132.85A7.35,7.35,0,0,0,125.38,52V85.1a4.07,4.07,0,0,0-1.95-.33H90.62a7.35,7.35,0,0,0-7.47,7.47V124.4H48.4a7.35,7.35,0,0,0-7.47,7.47v33.78H7.47A7.35,7.35,0,0,0,0,173.12v32.81a7.35,7.35,0,0,0,7.47,7.47H216v-203A7.9,7.9,0,0,0,208.2,2.6ZM203.78,98,170.3,131.45a1.16,1.16,0,0,1-1.62,0L135.2,98a1.15,1.15,0,0,1,0-1.61l33.48-33.48a1.16,1.16,0,0,1,1.62,0L199.44,92l4.34,4.34A1.13,1.13,0,0,1,203.78,98Zm-13-.52-20.89,20.88a.71.71,0,0,1-1,0L148,97.45a.7.7,0,0,1,0-1l20.88-20.88a.71.71,0,0,1,1,0L188,93.74l2.71,2.71A.72.72,0,0,1,190.75,97.45Z" fill="url(#linear-gradient)"/>
    <g clip-path="url(#clip-path)">
      <g>
        <polygon points="9.57 224.35 -10.31 258.77 -30.19 224.35 -10.31 189.91 9.57 224.35" fill="#fff" opacity="0.3"/>
        <polygon points="52.79 224.1 32.91 258.52 13.04 224.1 32.91 189.66 52.79 224.1" fill="#fff" opacity="0.3"/>
        <polygon points="31.18 187.23 11.3 221.66 -8.58 187.23 11.3 152.79 31.18 187.23" fill="#fff" opacity="0.3"/>
        <polygon points="52.79 149.8 32.91 184.23 13.03 149.8 32.91 115.37 52.79 149.8" fill="#fff" opacity="0.3"/>
        <polygon points="74.38 187.09 54.5 221.52 34.62 187.09 54.5 152.66 74.38 187.09" fill="#fff" opacity="0.3"/>
        <polygon points="96.01 149.56 76.13 183.98 56.25 149.56 76.13 115.12 96.01 149.56" fill="#fff" opacity="0.3"/>
        <polygon points="74.4 112.69 54.52 147.11 34.64 112.69 54.52 78.25 74.4 112.69" fill="#fff" opacity="0.3"/>
        <polygon points="96 224.47 76.12 258.9 56.24 224.47 76.12 190.03 96 224.47" fill="#fff" opacity="0.3"/>
      </g>
    </g>
  </g>
</svg>
