<svg id="Layer_1" data-name="Layer 1" xmlns="http://www.w3.org/2000/svg" xmlns:xlink="http://www.w3.org/1999/xlink" viewBox="0 0 216 216">
  <defs>
    <linearGradient id="linear-gradient" x1="108" y1="216.01" x2="108" y2="-0.01" gradientUnits="userSpaceOnUse">
      <stop offset="0.27" stop-color="#0328ff"/>
      <stop offset="0.76" stop-color="#1a82ff"/>
    </linearGradient>
    <clipPath id="clip-path">
      <path d="M184.31,31.62A108,108,0,1,0,31.63,184.37,108,108,0,1,0,184.31,31.62Zm-62.17,76.71-13.81,13.81a.47.47,0,0,1-.66,0L93.86,108.33a.47.47,0,0,1,0-.66L95.5,106,76.72,87.28a7.43,7.43,0,1,1,10.5-10.51l13.29,13.28,0-44a7.42,7.42,0,0,1,7.42-7.42h0a7.42,7.42,0,0,1,7.43,7.41l0,54.82,5,5,1.79,1.79A.47.47,0,0,1,122.14,108.33Zm-5.38-.21-8.61,8.61a.3.3,0,0,1-.41,0l-1.53-1.53-7.09-7.08a.31.31,0,0,1,0-.42l8.62-8.61a.3.3,0,0,1,.41,0l7.22,7.22.28.28,1.11,1.11A.29.29,0,0,1,116.76,108.12Z" fill="none"/>
    </clipPath>
  </defs>
  <g>
    <path d="M184.31,31.62A108,108,0,1,0,31.63,184.37,108,108,0,1,0,184.31,31.62Zm-62.17,76.71-13.81,13.81a.47.47,0,0,1-.66,0L93.86,108.33a.47.47,0,0,1,0-.66L95.5,106,76.72,87.28a7.43,7.43,0,1,1,10.5-10.51l13.29,13.28,0-44a7.42,7.42,0,0,1,7.42-7.42h0a7.42,7.42,0,0,1,7.43,7.41l0,54.82,5,5,1.79,1.79A.47.47,0,0,1,122.14,108.33Zm-5.38-.21-8.61,8.61a.3.3,0,0,1-.41,0l-1.53-1.53-7.09-7.08a.31.31,0,0,1,0-.42l8.62-8.61a.3.3,0,0,1,.41,0l7.22,7.22.28.28,1.11,1.11A.29.29,0,0,1,116.76,108.12Z" fill="url(#linear-gradient)"/>
    <g clip-path="url(#clip-path)">
      <g>
        <g>
          <polygon points="63.04 207.74 43.15 242.16 23.28 207.74 43.15 173.3 63.04 207.74" fill="#fff" opacity="0.3"/>
          <polygon points="41.42 170.87 21.54 205.3 1.67 170.87 21.54 136.44 41.42 170.87" fill="#fff" opacity="0.3"/>
        </g>
        <g>
          <polygon points="192.73 207.99 172.84 242.41 152.97 207.99 172.84 173.55 192.73 207.99" fill="#fff" opacity="0.3"/>
          <polygon points="214.34 170.87 194.45 205.3 174.58 170.87 194.45 136.44 214.34 170.87" fill="#fff" opacity="0.3"/>
        </g>
        <g>
          <polygon points="63.45 133.7 43.56 168.12 23.69 133.7 43.56 99.26 63.45 133.7" fill="#fff" opacity="0.3"/>
          <polygon points="85.04 170.99 65.15 205.41 45.28 170.99 65.15 136.55 85.04 170.99" fill="#fff" opacity="0.3"/>
          <polygon points="106.66 208.36 86.77 242.79 66.9 208.36 86.77 173.93 106.66 208.36" fill="#fff" opacity="0.3"/>
          <polygon points="128.25 245.66 108.36 280.08 88.49 245.66 108.36 211.22 128.25 245.66" fill="#fff" opacity="0.3"/>
          <polygon points="149.88 208.12 130 242.54 110.12 208.12 130 173.68 149.88 208.12" fill="#fff" opacity="0.3"/>
          <polygon points="171.47 171.11 151.58 205.54 131.71 171.11 151.58 136.68 171.47 171.11" fill="#fff" opacity="0.3"/>
          <polygon points="193.1 133.57 173.21 168 153.34 133.57 173.21 99.14 193.1 133.57" fill="#fff" opacity="0.3"/>
        </g>
      </g>
    </g>
  </g>
</svg>
