<svg id="Layer_1" data-name="Layer 1" xmlns="http://www.w3.org/2000/svg" xmlns:xlink="http://www.w3.org/1999/xlink" viewBox="0 0 216 216">
  <defs>
    <linearGradient id="linear-gradient" x1="108" y1="202.04" x2="108" y2="13.96" gradientUnits="userSpaceOnUse">
      <stop offset="0.27" stop-color="#0328ff"/>
      <stop offset="0.76" stop-color="#1a82ff"/>
    </linearGradient>
    <clipPath id="clip-path">
      <path d="M215.05,106.58l-50.46-89A7,7,0,0,0,158.46,14H57.54a7,7,0,0,0-6.13,3.57L1,106.58A7.05,7.05,0,0,0,1,113.66l50.46,84.93A7.06,7.06,0,0,0,57.55,202H158.46a7,7,0,0,0,6.06-3.45L215,113.66a7,7,0,0,0,1-3.84A6.85,6.85,0,0,0,215.05,106.58Zm-72.76,2.22-33.48,33.48a1.14,1.14,0,0,1-1.62,0L73.71,108.8a1.12,1.12,0,0,1,0-1.6l33.48-33.48a1.14,1.14,0,0,1,1.62,0L138,102.86l4.34,4.34A1.12,1.12,0,0,1,142.29,108.8Zm-13-.52-20.88,20.89a.73.73,0,0,1-1,0L86.47,108.28a.72.72,0,0,1,0-1L107.36,86.4a.71.71,0,0,1,1,0l18.18,18.17,2.7,2.71A.7.7,0,0,1,129.25,108.28Z" fill="none"/>
    </clipPath>
  </defs>
  <g>
    <path d="M215.05,106.58l-50.46-89A7,7,0,0,0,158.46,14H57.54a7,7,0,0,0-6.13,3.57L1,106.58A7.05,7.05,0,0,0,1,113.66l50.46,84.93A7.06,7.06,0,0,0,57.55,202H158.46a7,7,0,0,0,6.06-3.45L215,113.66a7,7,0,0,0,1-3.84A6.85,6.85,0,0,0,215.05,106.58Zm-72.76,2.22-33.48,33.48a1.14,1.14,0,0,1-1.62,0L73.71,108.8a1.12,1.12,0,0,1,0-1.6l33.48-33.48a1.14,1.14,0,0,1,1.62,0L138,102.86l4.34,4.34A1.12,1.12,0,0,1,142.29,108.8Zm-13-.52-20.88,20.89a.73.73,0,0,1-1,0L86.47,108.28a.72.72,0,0,1,0-1L107.36,86.4a.71.71,0,0,1,1,0l18.18,18.17,2.7,2.71A.7.7,0,0,1,129.25,108.28Z" fill="url(#linear-gradient)"/>
    <g clip-path="url(#clip-path)">
      <g>
        <polygon points="63.05 107.63 43.17 142.05 23.3 107.63 43.17 73.19 63.05 107.63" fill="#fff" opacity="0.3"/>
        <polygon points="84.64 144.92 64.76 179.34 44.89 144.92 64.76 110.48 84.64 144.92" fill="#fff" opacity="0.3"/>
        <polygon points="84.66 70.51 64.78 104.94 44.91 70.51 64.78 36.07 84.66 70.51" fill="#fff" opacity="0.3"/>
        <polygon points="106.27 182.29 86.38 216.72 66.51 182.29 86.38 147.85 106.27 182.29" fill="#fff" opacity="0.3"/>
        <polygon points="127.86 219.58 107.97 254.01 88.1 219.58 107.97 185.15 127.86 219.58" fill="#fff" opacity="0.3"/>
        <polygon points="149.49 182.04 129.6 216.47 109.73 182.04 129.6 147.61 149.49 182.04" fill="#fff" opacity="0.3"/>
        <polygon points="106.27 33.08 86.39 67.51 66.52 33.08 86.39 -1.35 106.27 33.08" fill="#fff" opacity="0.3"/>
        <polygon points="149.49 32.84 129.61 67.26 109.74 32.84 129.61 -1.6 149.49 32.84" fill="#fff" opacity="0.3"/>
        <polygon points="127.88 -4.03 108 30.39 88.12 -4.03 108 -38.47 127.88 -4.03" fill="#fff" opacity="0.3"/>
        <polygon points="171.07 145.04 151.19 179.47 131.32 145.04 151.19 110.61 171.07 145.04" fill="#fff" opacity="0.3"/>
        <polygon points="192.71 107.5 172.82 141.93 152.95 107.5 172.82 73.07 192.71 107.5" fill="#fff" opacity="0.3"/>
        <polygon points="171.09 70.63 151.21 105.06 131.34 70.63 151.21 36.2 171.09 70.63" fill="#fff" opacity="0.3"/>
      </g>
    </g>
  </g>
</svg>
