<?xml version="1.0" encoding="UTF-8"?><svg id="a" xmlns="http://www.w3.org/2000/svg" xmlns:xlink="http://www.w3.org/1999/xlink" viewBox="0 0 96 96"><defs><style>.d{fill:url(#b);}.e{fill:none;}.f{fill:#fff;isolation:isolate;opacity:.3;}.g{clip-path:url(#c);}</style><linearGradient id="b" x1="38.7" y1="2" x2="38.7" y2="98" gradientTransform="translate(0 98) scale(1 -1)" gradientUnits="userSpaceOnUse"><stop offset=".17" stop-color="#0328ff"/><stop offset=".76" stop-color="#1a82ff"/></linearGradient><clipPath id="c"><path class="e" d="M54.26,45.37c6.02-4.9,9.54-12.23,9.6-19.99C63.83,11.32,52.4-.04,38.35,0,24.29,.04,12.93,11.47,12.97,25.52c.02,7.73,3.56,15.03,9.61,19.85C9.34,51.6,0,64.84,0,80.43v15.57H77.39v-15.57c-.51-15.11-9.44-28.65-23.13-35.07Zm-.33,27.17l-14.88,14.89c-.2,.2-.52,.2-.72,0,0,0,0,0,0,0l-14.89-14.89c-.2-.19-.2-.51,0-.71,0,0,0,0,0,0l14.89-14.89c.2-.2,.52-.2,.72,0l12.98,12.96,1.93,1.93c.19,.2,.18,.52-.02,.71,0,0,0,0,0,0h-.01Z"/></clipPath></defs><path class="d" d="M54.26,45.37c6.02-4.9,9.54-12.23,9.6-19.99C63.83,11.32,52.4-.04,38.35,0,24.29,.04,12.93,11.47,12.97,25.52c.02,7.73,3.56,15.03,9.61,19.85C9.34,51.6,0,64.84,0,80.43v15.57H77.39v-15.57c-.51-15.11-9.44-28.65-23.13-35.07Zm-15.93,11.56c.2-.2,.52-.2,.72,0l12.98,12.96,1.93,1.93c.19,.2,.18,.52-.02,.71,0,0,0,0,0,0h-.01s-14.88,14.89-14.88,14.89c-.2,.2-.52,.2-.72,0,0,0,0,0,0,0l-14.89-14.89c-.2-.19-.2-.51,0-.71m24.71,.03c.13,.12,.13,.31,.01,.44,0,0-.13,.13-.14,.14l-.07,.07-9.09,9.09c-.12,.12-.32,.12-.44,0l-9.3-9.29c-.12-.12-.12-.32,0-.44l9.29-9.29c.12-.12,.32-.12,.44,0"/><g class="g"><g><polygon class="f" points="27.72 107.81 18.88 123.12 10.04 107.81 18.88 92.49 27.72 107.81"/><polygon class="f" points="37.34 91.16 28.49 106.47 19.66 91.16 28.49 75.85 37.34 91.16"/><polygon class="f" points="46.94 107.75 38.1 123.06 29.26 107.75 38.1 92.43 46.94 107.75"/><polygon class="f" points="56.56 91.05 47.72 106.36 38.88 91.05 47.72 75.74 56.56 91.05"/><polygon class="f" points="46.95 74.65 38.1 89.96 29.27 74.65 38.1 59.34 46.95 74.65"/><polygon class="f" points="66.17 107.86 57.32 123.18 48.49 107.86 57.32 92.55 66.17 107.86"/></g></g></svg>