<svg id="Layer_1" data-name="Layer 1" xmlns="http://www.w3.org/2000/svg" xmlns:xlink="http://www.w3.org/1999/xlink" viewBox="0 0 216 216">
  <defs>
    <clipPath id="clip-path">
      <path d="M0-182.5H41.19a66.85,66.85,0,0,1,64.31-64.31V-288A108,108,0,0,0,0-182.5ZM110.5-288v41.15a66.85,66.85,0,0,1,64.31,64.31H216A108,108,0,0,0,110.5-288ZM174.81-177.5a66.85,66.85,0,0,1-64.31,64.31V-72A108,108,0,0,0,216-177.5Zm-133.62,0H0A108,108,0,0,0,105.5-72v-41.15A66.85,66.85,0,0,1,41.19-177.5Zm99.7,0L110.5-147.11v22.05a55,55,0,0,0,52.44-52.44Zm-87.83-5h22l30.39-30.39v-22.05A55,55,0,0,0,53.06-182.5Zm57.44-52.44v22.05l30.39,30.39h22.05A55,55,0,0,0,110.5-234.94Zm30.39,57.44L110.5-147.11v22.05a55,55,0,0,0,52.44-52.44Zm-65.78,0h-22a55,55,0,0,0,52.44,52.44v-22.05Zm54.42-3-2.73-2.73-18.33-18.34a.72.72,0,0,0-1,0L86.39-180.5a.71.71,0,0,0,0,1l21.06,21.06a.72.72,0,0,0,1,0l21.06-21.06A.71.71,0,0,0,129.53-180.5Z" fill="none"/>
    </clipPath>
    <linearGradient id="linear-gradient" x1="108" x2="108" y2="216" gradientUnits="userSpaceOnUse">
      <stop offset="0.24" stop-color="#1a82ff"/>
      <stop offset="0.76" stop-color="#0328ff"/>
    </linearGradient>
    <clipPath id="clip-path-2">
      <path d="M153,40.56h33.13A15.08,15.08,0,0,0,185,39.23L149.8,4a12.11,12.11,0,0,0-1.3-1.07V36.06a4.51,4.51,0,0,0,4.5,4.5Zm-23.75,66.72a.7.7,0,0,1,0,1l-20.88,20.89a.73.73,0,0,1-1,0L86.47,108.28a.72.72,0,0,1,0-1L107.36,86.4a.71.71,0,0,1,1,0ZM153,49.57a13.52,13.52,0,0,1-13.5-13.51V0h-99A13.54,13.54,0,0,0,27,13.51v189A13.51,13.51,0,0,0,40.5,216h135A13.51,13.51,0,0,0,189,202.49V49.57ZM142.29,108.8l-33.48,33.48a1.14,1.14,0,0,1-1.62,0L73.71,108.8a1.12,1.12,0,0,1,0-1.6l33.48-33.48a1.14,1.14,0,0,1,1.62,0L138,102.86l4.34,4.34A1.12,1.12,0,0,1,142.29,108.8Zm-13-.52-20.88,20.89a.73.73,0,0,1-1,0L86.47,108.28a.72.72,0,0,1,0-1L107.36,86.4a.71.71,0,0,1,1,0l20.88,20.88A.7.7,0,0,1,129.25,108.28Zm0,0-20.88,20.89a.73.73,0,0,1-1,0L86.47,108.28a.72.72,0,0,1,0-1L107.36,86.4a.71.71,0,0,1,1,0l20.88,20.88A.7.7,0,0,1,129.25,108.28Z" fill="none"/>
    </clipPath>
  </defs>
  <g clip-path="url(#clip-path)">
    <g>
      <polygon points="106.61 -26.84 86.72 7.59 66.85 -26.84 86.72 -61.27 106.61 -26.84" fill="#fff" opacity="0.3"/>
      <polygon points="128.2 10.46 108.32 44.88 88.44 10.46 108.32 -23.98 128.2 10.46" fill="#fff" opacity="0.3"/>
      <polygon points="149.83 -27.08 129.95 7.34 110.07 -27.08 129.95 -61.52 149.83 -27.08" fill="#fff" opacity="0.3"/>
    </g>
  </g>
  <g>
    <path d="M153,40.56h33.13A15.08,15.08,0,0,0,185,39.23L149.8,4a12.11,12.11,0,0,0-1.3-1.07V36.06a4.51,4.51,0,0,0,4.5,4.5Zm-23.75,66.72a.7.7,0,0,1,0,1l-20.88,20.89a.73.73,0,0,1-1,0L86.47,108.28a.72.72,0,0,1,0-1L107.36,86.4a.71.71,0,0,1,1,0ZM153,49.57a13.52,13.52,0,0,1-13.5-13.51V0h-99A13.54,13.54,0,0,0,27,13.51v189A13.51,13.51,0,0,0,40.5,216h135A13.51,13.51,0,0,0,189,202.49V49.57ZM142.29,108.8l-33.48,33.48a1.14,1.14,0,0,1-1.62,0L73.71,108.8a1.12,1.12,0,0,1,0-1.6l33.48-33.48a1.14,1.14,0,0,1,1.62,0L138,102.86l4.34,4.34A1.12,1.12,0,0,1,142.29,108.8Zm-13-.52-20.88,20.89a.73.73,0,0,1-1,0L86.47,108.28a.72.72,0,0,1,0-1L107.36,86.4a.71.71,0,0,1,1,0l20.88,20.88A.7.7,0,0,1,129.25,108.28Zm0,0-20.88,20.89a.73.73,0,0,1-1,0L86.47,108.28a.72.72,0,0,1,0-1L107.36,86.4a.71.71,0,0,1,1,0l20.88,20.88A.7.7,0,0,1,129.25,108.28Z" fill="url(#linear-gradient)"/>
    <g clip-path="url(#clip-path-2)">
      <g>
        <polygon points="19.82 219.05 -0.07 253.47 -19.94 219.05 -0.07 184.61 19.82 219.05" fill="#fff" opacity="0.3"/>
        <polygon points="41.41 182.04 21.52 216.47 1.65 182.04 21.52 147.61 41.41 182.04" fill="#fff" opacity="0.3"/>
        <polygon points="63.03 219.42 43.14 253.85 23.27 219.42 43.14 184.98 63.03 219.42" fill="#fff" opacity="0.3"/>
        <polygon points="106.25 219.17 86.36 253.6 66.49 219.17 86.36 184.74 106.25 219.17" fill="#fff" opacity="0.3"/>
        <polygon points="84.64 182.3 64.75 216.73 44.88 182.3 64.75 147.87 84.64 182.3" fill="#fff" opacity="0.3"/>
        <polygon points="149.51 219.3 129.63 253.72 109.75 219.3 129.63 184.86 149.51 219.3" fill="#fff" opacity="0.3"/>
        <polygon points="192.73 219.05 172.85 253.47 152.97 219.05 172.85 184.61 192.73 219.05" fill="#fff" opacity="0.3"/>
        <polygon points="171.12 182.18 151.24 216.61 131.36 182.18 151.24 147.75 171.12 182.18" fill="#fff" opacity="0.3"/>
        <polygon points="214.32 182.04 194.43 216.47 174.56 182.04 194.43 147.61 214.32 182.04" fill="#fff" opacity="0.3"/>
        <polygon points="235.94 219.42 216.06 253.85 196.18 219.42 216.06 184.98 235.94 219.42" fill="#fff" opacity="0.3"/>
        <polygon points="128.25 182.42 108.36 216.85 88.49 182.42 108.36 147.99 128.25 182.42" fill="#fff" opacity="0.3"/>
      </g>
    </g>
  </g>
</svg>
