<svg id="Layer_1" data-name="Layer 1" xmlns="http://www.w3.org/2000/svg" xmlns:xlink="http://www.w3.org/1999/xlink" viewBox="0 0 216 216">
  <defs>
    <linearGradient id="linear-gradient" x1="108" y1="5" x2="108" y2="211" gradientUnits="userSpaceOnUse">
      <stop offset="0.24" stop-color="#1a82ff"/>
      <stop offset="0.73" stop-color="#0328ff"/>
    </linearGradient>
    <clipPath id="clip-path">
      <path d="M213.74,90.87a7.74,7.74,0,0,0-4.2-13L149.27,67A7.73,7.73,0,0,1,143.84,63l-29-53.95a7.73,7.73,0,0,0-13.62,0l-29,54A7.75,7.75,0,0,1,66.73,67L6.46,77.91a7.74,7.74,0,0,0-4.2,13L44.6,135.13a7.8,7.8,0,0,1,2.07,6.39l-8.24,60.69a7.72,7.72,0,0,0,11,8l55.19-26.57a7.74,7.74,0,0,1,6.71,0l55.2,26.58a7.73,7.73,0,0,0,11-8l-8.22-60.71a7.79,7.79,0,0,1,2.07-6.38Zm-71.48,27-33.45,33.46a1.16,1.16,0,0,1-1.62,0L73.74,117.83a1.1,1.1,0,0,1,0-1.6l33.45-33.47a1.16,1.16,0,0,1,1.62,0l29.12,29.13,4.33,4.34A1.1,1.1,0,0,1,142.26,117.83Zm-12.11-.51-2.74-2.73L109,96.2a.72.72,0,0,0-1,0L86.87,117.32a.72.72,0,0,0,0,1L108,139.46a.72.72,0,0,0,1,0l21.13-21.12A.72.72,0,0,0,130.15,117.32Z" fill="none"/>
    </clipPath>
  </defs>
  <g>
    <path d="M213.74,90.87a7.74,7.74,0,0,0-4.2-13L149.27,67A7.73,7.73,0,0,1,143.84,63l-29-53.95a7.73,7.73,0,0,0-13.62,0l-29,54A7.75,7.75,0,0,1,66.73,67L6.46,77.91a7.74,7.74,0,0,0-4.2,13L44.6,135.13a7.8,7.8,0,0,1,2.07,6.39l-8.24,60.69a7.72,7.72,0,0,0,11,8l55.19-26.57a7.74,7.74,0,0,1,6.71,0l55.2,26.58a7.73,7.73,0,0,0,11-8l-8.22-60.71a7.79,7.79,0,0,1,2.07-6.38Zm-71.48,27-33.45,33.46a1.16,1.16,0,0,1-1.62,0L73.74,117.83a1.1,1.1,0,0,1,0-1.6l33.45-33.47a1.16,1.16,0,0,1,1.62,0l29.12,29.13,4.33,4.34A1.1,1.1,0,0,1,142.26,117.83Zm-12.11-.51-2.74-2.73L109,96.2a.72.72,0,0,0-1,0L86.87,117.32a.72.72,0,0,0,0,1L108,139.46a.72.72,0,0,0,1,0l21.13-21.12A.72.72,0,0,0,130.15,117.32Z" fill="url(#linear-gradient)"/>
    <g clip-path="url(#clip-path)">
      <g>
        <polygon points="63.2 202.03 43.26 236.56 23.32 202.03 43.26 167.49 63.2 202.03" fill="#fff" opacity="0.3"/>
        <polygon points="84.86 239.44 64.92 273.97 44.98 239.44 64.92 204.9 84.86 239.44" fill="#fff" opacity="0.3"/>
        <polygon points="106.56 201.78 86.61 236.32 66.68 201.78 86.61 167.25 106.56 201.78" fill="#fff" opacity="0.3"/>
        <polygon points="84.88 164.81 64.94 199.34 45 164.81 64.94 130.26 84.88 164.81" fill="#fff" opacity="0.3"/>
        <polygon points="128.22 239.7 108.28 274.23 88.34 239.7 108.28 205.16 128.22 239.7" fill="#fff" opacity="0.3"/>
        <polygon points="149.9 202.16 129.96 236.69 110.02 202.16 129.96 167.62 149.9 202.16" fill="#fff" opacity="0.3"/>
        <polygon points="171.56 239.56 151.61 274.1 131.68 239.56 151.61 205.02 171.56 239.56" fill="#fff" opacity="0.3"/>
        <polygon points="193.25 201.91 173.31 236.44 153.37 201.91 173.31 167.37 193.25 201.91" fill="#fff" opacity="0.3"/>
        <polygon points="171.57 164.93 151.63 199.46 131.69 164.93 151.63 130.39 171.57 164.93" fill="#fff" opacity="0.3"/>
      </g>
    </g>
  </g>
</svg>
