<svg id="Layer_1" data-name="Layer 1" xmlns="http://www.w3.org/2000/svg" xmlns:xlink="http://www.w3.org/1999/xlink" viewBox="0 0 216 216">
  <defs>
    <linearGradient id="linear-gradient" x1="108" y1="216.03" x2="108" y2="-0.03" gradientUnits="userSpaceOnUse">
      <stop offset="0.24" stop-color="#0328ff"/>
      <stop offset="0.76" stop-color="#1a82ff"/>
    </linearGradient>
    <clipPath id="clip-path">
      <path d="M199.81,94.41A55.21,55.21,0,0,1,147.62,109L48,208.69a25.19,25.19,0,0,1-35.55,0l-5.09-5.1a25.13,25.13,0,0,1,0-35.55L107,68.39A55.27,55.27,0,0,1,178.62,3L147.55,34.08a1.13,1.13,0,0,0,0,1.61L181,69.17a1.14,1.14,0,0,0,1.62,0l30.71-30.71A54.91,54.91,0,0,1,199.81,94.41Zm3.28-60.24-1.38-1.39-1.32-1.32L183.22,14.3l-1-1a.71.71,0,0,0-1,0L160.31,34.17a.72.72,0,0,0,0,1l1,1,18.49,18.48,1.38,1.38a.71.71,0,0,0,1,0l20.88-20.88A.7.7,0,0,0,203.09,34.17Z" fill="none"/>
    </clipPath>
  </defs>
  <g>
    <path d="M199.81,94.41A55.21,55.21,0,0,1,147.62,109L48,208.69a25.19,25.19,0,0,1-35.55,0l-5.09-5.1a25.13,25.13,0,0,1,0-35.55L107,68.39A55.27,55.27,0,0,1,178.62,3L147.55,34.08a1.13,1.13,0,0,0,0,1.61L181,69.17a1.14,1.14,0,0,0,1.62,0l30.71-30.71A54.91,54.91,0,0,1,199.81,94.41Zm3.28-60.24-1.38-1.39-1.32-1.32L183.22,14.3l-1-1a.71.71,0,0,0-1,0L160.31,34.17a.72.72,0,0,0,0,1l1,1,18.49,18.48,1.38,1.38a.71.71,0,0,0,1,0l20.88-20.88A.7.7,0,0,0,203.09,34.17Z" fill="url(#linear-gradient)"/>
    <g clip-path="url(#clip-path)">
      <g>
        <polygon points="34.12 189.23 14.24 223.66 -5.63 189.23 14.24 154.8 34.12 189.23" fill="#fff" opacity="0.3"/>
        <polygon points="55.76 151.69 35.87 186.12 16 151.69 35.87 117.26 55.76 151.69" fill="#fff" opacity="0.3"/>
        <polygon points="77.34 114.69 57.46 149.12 37.59 114.69 57.46 80.25 77.34 114.69" fill="#fff" opacity="0.3"/>
        <polygon points="98.97 77.15 79.09 111.58 59.22 77.15 79.09 42.72 98.97 77.15" fill="#fff" opacity="0.3"/>
      </g>
    </g>
  </g>
</svg>
