<?xml version="1.0" encoding="UTF-8"?>
<svg id="Layer_1" data-name="Layer 1" xmlns="http://www.w3.org/2000/svg" xmlns:xlink="http://www.w3.org/1999/xlink" viewBox="0 0 206.49 337.43">
  <defs>
    <style>
      .cls-1, .cls-2 {
        fill: none;
      }

      .cls-3 {
        fill: url(#linear-gradient);
      }

      .cls-2 {
        clip-path: url(#clippath);
      }

      .cls-4 {
        fill: #fff;
        opacity: .3;
      }
    </style>
    <linearGradient id="linear-gradient" x1="103.3" y1="18.79" x2="103.21" y2="225.28" gradientUnits="userSpaceOnUse">
      <stop offset=".32" stop-color="#fdb619"/>
      <stop offset=".54" stop-color="#e9a010"/>
      <stop offset="1" stop-color="#c47500"/>
    </linearGradient>
    <clipPath id="clippath">
      <path class="cls-1" d="m205.63,142.53c-5.11-5.96-19.86-24.43-19.83-38.81.02-13.58,13.23-24.8,19.02-29.07,1.49-1.1,1.91-3.14.97-4.73l-18.43-31.22c-.82-1.4-2.47-2.07-4.04-1.65-6.92,1.9-26.21,5.94-40.23-2.99-13.26-8.45-15.66-23.81-16.06-30.6-.11-1.9-1.68-3.37-3.58-3.38L81.06,0c-2.08-.01-3.75,1.75-3.6,3.83.51,6.94-.31,21.66-14.55,30.48-15.19,9.41-33.84,4.34-40.86,1.87-1.66-.59-3.51.1-4.36,1.65L.69,68.79c-.84,1.53-.48,3.42.87,4.52,5.48,4.45,18.45,16.96,17.07,34.73-1.37,17.67-12.69,29.82-17.46,34.21-1.22,1.12-1.52,2.91-.73,4.37l16.62,30.49c.81,1.49,2.55,2.21,4.17,1.73,7.34-2.18,27.84-6.94,42.22,2.68,13.6,9.11,16.28,24.39,16.79,31.08.14,1.87,1.7,3.31,3.58,3.32l35.84.07c1.74.01,3.22-1.24,3.55-2.95,1.22-6.43,5.62-21.93,20.63-31.78,15.11-9.92,31.62-4.28,38.1-1.34,1.66.75,3.61.15,4.56-1.4l19.44-31.77c.82-1.34.69-3.03-.33-4.22Zm-67.8-33.72l-33.76,33.76c-.45.45-1.19.45-1.64,0l-33.76-33.76c-.45-.45-.45-1.17,0-1.62l33.76-33.76c.45-.45,1.19-.45,1.64,0l33.76,33.76c.45.45.45,1.17,0,1.62Zm-12.6-.92l-2.73-2.73-18.33-18.33c-.28-.28-.74-.28-1.02,0l-21.06,21.06c-.28.28-.28.73,0,1.01l21.06,21.06c.28.28.74.28,1.02,0l21.06-21.06c.28-.28.28-.73,0-1.01Z"/>
    </clipPath>
  </defs>
  <path class="cls-3" d="m205.63,142.53c-5.11-5.96-19.86-24.43-19.83-38.81.02-13.58,13.23-24.8,19.02-29.07,1.49-1.1,1.91-3.14.97-4.73l-18.43-31.22c-.82-1.4-2.47-2.07-4.04-1.65-6.92,1.9-26.21,5.94-40.23-2.99-13.26-8.45-15.66-23.81-16.06-30.6-.11-1.9-1.68-3.37-3.58-3.38L81.06,0c-2.08-.01-3.75,1.75-3.6,3.83.51,6.94-.31,21.66-14.55,30.48-15.19,9.41-33.84,4.34-40.86,1.87-1.66-.59-3.51.1-4.36,1.65L.69,68.79c-.84,1.53-.48,3.42.87,4.52,5.48,4.45,18.45,16.96,17.07,34.73-1.37,17.67-12.69,29.82-17.46,34.21-1.22,1.12-1.52,2.91-.73,4.37l16.62,30.49c.81,1.49,2.55,2.21,4.17,1.73,7.34-2.18,27.84-6.94,42.22,2.68,13.6,9.11,16.28,24.39,16.79,31.08.14,1.87,1.7,3.31,3.58,3.32l35.84.07c1.74.01,3.22-1.24,3.55-2.95,1.22-6.43,5.62-21.93,20.63-31.78,15.11-9.92,31.62-4.28,38.1-1.34,1.66.75,3.61.15,4.56-1.4l19.44-31.77c.82-1.34.69-3.03-.33-4.22Zm-67.8-33.72l-33.76,33.76c-.45.45-1.19.45-1.64,0l-33.76-33.76c-.45-.45-.45-1.17,0-1.62l33.76-33.76c.45-.45,1.19-.45,1.64,0l33.76,33.76c.45.45.45,1.17,0,1.62Zm-12.6-.92l-2.73-2.73-18.33-18.33c-.28-.28-.74-.28-1.02,0l-21.06,21.06c-.28.28-.28.73,0,1.01l21.06,21.06c.28.28.74.28,1.02,0l21.06-21.06c.28-.28.28-.73,0-1.01Z"/>
  <g class="cls-2">
    <g>
      <polygon class="cls-4" points="58.83 191.03 38.94 225.46 19.07 191.03 38.94 156.59 58.83 191.03"/>
      <polygon class="cls-4" points="80.42 228.33 60.54 262.76 40.66 228.33 60.54 193.89 80.42 228.33"/>
      <polygon class="cls-4" points="102.05 190.79 82.17 225.22 62.29 190.79 82.17 156.35 102.05 190.79"/>
      <polygon class="cls-4" points="80.44 153.91 60.55 188.34 40.68 153.91 60.55 119.48 80.44 153.91"/>
      <polygon class="cls-4" points="102.04 265.71 82.16 300.14 62.28 265.71 82.16 231.27 102.04 265.71"/>
      <polygon class="cls-4" points="123.64 303 103.75 337.43 83.88 303 103.75 268.56 123.64 303"/>
      <polygon class="cls-4" points="145.27 265.46 125.38 299.89 105.51 265.46 125.38 231.02 145.27 265.46"/>
      <polygon class="cls-4" points="123.66 228.59 103.77 263.02 83.89 228.59 103.77 194.15 123.66 228.59"/>
      <polygon class="cls-4" points="145.27 191.16 125.38 225.59 105.51 191.16 125.38 156.72 145.27 191.16"/>
      <polygon class="cls-4" points="166.86 228.45 146.97 262.88 127.1 228.45 146.97 194.01 166.86 228.45"/>
      <polygon class="cls-4" points="188.49 190.91 168.61 225.34 148.73 190.91 168.61 156.47 188.49 190.91"/>
      <polygon class="cls-4" points="166.88 154.04 146.99 188.47 127.12 154.04 146.99 119.6 166.88 154.04"/>
    </g>
  </g>
</svg>