<svg id="Layer_1" data-name="Layer 1" xmlns="http://www.w3.org/2000/svg" xmlns:xlink="http://www.w3.org/1999/xlink" viewBox="0 0 216 216">
  <defs>
    <linearGradient id="linear-gradient" x1="108" y1="216" x2="108" gradientUnits="userSpaceOnUse">
      <stop offset="0.14" stop-color="#c47500"/>
      <stop offset="0.19" stop-color="#cb7d03"/>
      <stop offset="0.4" stop-color="#e69c0f"/>
      <stop offset="0.58" stop-color="#f7af16"/>
      <stop offset="0.71" stop-color="#fdb619"/>
    </linearGradient>
    <clipPath id="clip-path">
      <path d="M210.65,79.4l-.17-.62a3.06,3.06,0,0,0-2.93-2.24,3,3,0,0,0-2.94,2.23l-.16.62q-1.87,6.8-3.09,13.74c-.81,4.62-1.41,9.29-1.78,14L170.45,88.17a149.47,149.47,0,0,0-5.34-38.48l-.17-.62A3,3,0,0,0,162,46.83a3,3,0,0,0-2.93,2.24l-.17.61A149.24,149.24,0,0,0,154,77.51L129.67,61.69A243.08,243.08,0,0,0,112.86,3.2a5.29,5.29,0,0,0-9.72,0,243.06,243.06,0,0,0-16.8,58.49L62,77.51A150.06,150.06,0,0,0,57.1,49.68l-.17-.61a3,3,0,0,0-5.86,0l-.17.62a148.61,148.61,0,0,0-5.34,38.48L16.43,107.09a149.66,149.66,0,0,0-4.87-27.7l-.17-.62a3,3,0,0,0-2.92-2.23h0a3,3,0,0,0-2.92,2.24l-.18.62A149.14,149.14,0,0,0,0,119V134.4a4.27,4.27,0,0,0,4.25,4.26h9.56a31.42,31.42,0,0,0,5.21-.45l52.57-8.92,5.8,26.79h0a4.22,4.22,0,0,0,4.11,3.3H89l2.12,26.89-24.57,6.24a5.3,5.3,0,0,0-4,5.13v14.13A4.24,4.24,0,0,0,66.76,216h82.49a4.24,4.24,0,0,0,4.21-4.23V197.64a5.3,5.3,0,0,0-4-5.13l-24.57-6.24L127,159.38h7.49a4.2,4.2,0,0,0,4.1-3.3l5.8-26.79L197,138.21a31.42,31.42,0,0,0,5.21.45h9.55A4.27,4.27,0,0,0,216,134.4V119A149.08,149.08,0,0,0,210.65,79.4Zm-70.3,29L108.76,140a1.06,1.06,0,0,1-1.52,0L75.66,108.41a1.06,1.06,0,0,1,0-1.51l31.58-31.58a1.07,1.07,0,0,1,1.52,0l27.5,27.48,4.09,4.1A1.06,1.06,0,0,1,140.35,108.41Zm-12.3-.49-19.7,19.7a.68.68,0,0,1-.95,0l-19.7-19.7a.66.66,0,0,1,0-.94l19.7-19.69a.66.66,0,0,1,.95,0l17.15,17.14,2.55,2.55A.66.66,0,0,1,128.05,107.92Z" fill="none"/>
    </clipPath>
  </defs>
  <g>
    <path d="M210.65,79.4l-.17-.62a3.06,3.06,0,0,0-2.93-2.24,3,3,0,0,0-2.94,2.23l-.16.62q-1.87,6.8-3.09,13.74c-.81,4.62-1.41,9.29-1.78,14L170.45,88.17a149.47,149.47,0,0,0-5.34-38.48l-.17-.62A3,3,0,0,0,162,46.83a3,3,0,0,0-2.93,2.24l-.17.61A149.24,149.24,0,0,0,154,77.51L129.67,61.69A243.08,243.08,0,0,0,112.86,3.2a5.29,5.29,0,0,0-9.72,0,243.06,243.06,0,0,0-16.8,58.49L62,77.51A150.06,150.06,0,0,0,57.1,49.68l-.17-.61a3,3,0,0,0-5.86,0l-.17.62a148.61,148.61,0,0,0-5.34,38.48L16.43,107.09a149.66,149.66,0,0,0-4.87-27.7l-.17-.62a3,3,0,0,0-2.92-2.23h0a3,3,0,0,0-2.92,2.24l-.18.62A149.14,149.14,0,0,0,0,119V134.4a4.27,4.27,0,0,0,4.25,4.26h9.56a31.42,31.42,0,0,0,5.21-.45l52.57-8.92,5.8,26.79h0a4.22,4.22,0,0,0,4.11,3.3H89l2.12,26.89-24.57,6.24a5.3,5.3,0,0,0-4,5.13v14.13A4.24,4.24,0,0,0,66.76,216h82.49a4.24,4.24,0,0,0,4.21-4.23V197.64a5.3,5.3,0,0,0-4-5.13l-24.57-6.24L127,159.38h7.49a4.2,4.2,0,0,0,4.1-3.3l5.8-26.79L197,138.21a31.42,31.42,0,0,0,5.21.45h9.55A4.27,4.27,0,0,0,216,134.4V119A149.08,149.08,0,0,0,210.65,79.4Zm-70.3,29L108.76,140a1.06,1.06,0,0,1-1.52,0L75.66,108.41a1.06,1.06,0,0,1,0-1.51l31.58-31.58a1.07,1.07,0,0,1,1.52,0l27.5,27.48,4.09,4.1A1.06,1.06,0,0,1,140.35,108.41Zm-12.3-.49-19.7,19.7a.68.68,0,0,1-.95,0l-19.7-19.7a.66.66,0,0,1,0-.94l19.7-19.69a.66.66,0,0,1,.95,0l17.15,17.14,2.55,2.55A.66.66,0,0,1,128.05,107.92Z" fill="url(#linear-gradient)"/>
    <g clip-path="url(#clip-path)">
      <g>
        <g>
          <polygon points="8.26 104.13 -10.49 136.6 -29.24 104.13 -10.49 71.64 8.26 104.13" fill="#fff" opacity="0.3"/>
          <polygon points="28.63 139.78 9.88 172.25 -8.87 139.78 9.88 107.3 28.63 139.78" fill="#fff" opacity="0.3"/>
          <polygon points="28.62 69.22 9.87 101.69 -8.88 69.22 9.87 36.74 28.62 69.22" fill="#fff" opacity="0.3"/>
          <polygon points="49.02 104.47 30.26 136.95 11.52 104.47 30.26 71.99 49.02 104.47" fill="#fff" opacity="0.3"/>
          <polygon points="69.38 139.65 50.63 172.12 31.88 139.65 50.63 107.17 69.38 139.65" fill="#fff" opacity="0.3"/>
          <polygon points="69.4 69.47 50.65 101.94 31.9 69.47 50.65 36.99 69.4 69.47" fill="#fff" opacity="0.3"/>
        </g>
        <g>
          <polygon points="184.09 139.53 165.33 172 146.59 139.53 165.33 107.05 184.09 139.53" fill="#fff" opacity="0.3"/>
          <polygon points="204.49 104.13 185.74 136.6 166.99 104.13 185.74 71.64 204.49 104.13" fill="#fff" opacity="0.3"/>
          <polygon points="184.11 69.35 165.35 101.82 146.6 69.35 165.35 36.87 184.11 69.35" fill="#fff" opacity="0.3"/>
          <polygon points="224.87 139.78 206.11 172.25 187.36 139.78 206.11 107.3 224.87 139.78" fill="#fff" opacity="0.3"/>
          <polygon points="224.85 69.22 206.1 101.69 187.35 69.22 206.1 36.74 224.85 69.22" fill="#fff" opacity="0.3"/>
          <polygon points="245.25 104.47 226.49 136.95 207.75 104.47 226.49 71.99 245.25 104.47" fill="#fff" opacity="0.3"/>
        </g>
      </g>
    </g>
  </g>
</svg>
