<svg id="Layer_1" data-name="Layer 1" xmlns="http://www.w3.org/2000/svg" xmlns:xlink="http://www.w3.org/1999/xlink" viewBox="0 0 216 216">
  <defs>
    <linearGradient id="linear-gradient" x1="108" y1="180.98" x2="108" y2="35.02" gradientUnits="userSpaceOnUse">
      <stop offset="0.09" stop-color="#070"/>
      <stop offset="0.45" stop-color="#4cb900"/>
      <stop offset="0.64" stop-color="#6ed600"/>
    </linearGradient>
    <clipPath id="clip-path">
      <path d="M215,35H71.15a1,1,0,0,0-1,1V51.75H40.46V36a1,1,0,0,0-1-1H1a1,1,0,0,0-1,1V74.47a1,1,0,0,0,1,1H39.45a1,1,0,0,0,1-1V59.28H70.14v45.17H40.46V88.78a1,1,0,0,0-1-1H1a1,1,0,0,0-1,1v38.43a1,1,0,0,0,1,1H39.45a1,1,0,0,0,1-1V112H70.14v45H40.46V141.53a1,1,0,0,0-1-1H1a1,1,0,0,0-1,1V180a1,1,0,0,0,1,1H39.45a1,1,0,0,0,1-1V164.51H70.14v15.35a1,1,0,0,0,1,1H215a1,1,0,0,0,1-1V36A1,1,0,0,0,215,35ZM175.34,108.7l-31.51,31.51a1.09,1.09,0,0,1-1.53,0L110.79,108.7a1.07,1.07,0,0,1,0-1.5L142.3,75.69a1.09,1.09,0,0,1,1.53,0l31.51,31.51A1.07,1.07,0,0,1,175.34,108.7Z" fill="none"/>
    </clipPath>
  </defs>
  <g>
    <path d="M215,35H71.15a1,1,0,0,0-1,1V51.75H40.46V36a1,1,0,0,0-1-1H1a1,1,0,0,0-1,1V74.47a1,1,0,0,0,1,1H39.45a1,1,0,0,0,1-1V59.28H70.14v45.17H40.46V88.78a1,1,0,0,0-1-1H1a1,1,0,0,0-1,1v38.43a1,1,0,0,0,1,1H39.45a1,1,0,0,0,1-1V112H70.14v45H40.46V141.53a1,1,0,0,0-1-1H1a1,1,0,0,0-1,1V180a1,1,0,0,0,1,1H39.45a1,1,0,0,0,1-1V164.51H70.14v15.35a1,1,0,0,0,1,1H215a1,1,0,0,0,1-1V36A1,1,0,0,0,215,35ZM175.34,108.7l-31.51,31.51a1.09,1.09,0,0,1-1.53,0L110.79,108.7a1.07,1.07,0,0,1,0-1.5L142.3,75.69a1.09,1.09,0,0,1,1.53,0l31.51,31.51A1.07,1.07,0,0,1,175.34,108.7Zm-12.27.7-19.66,19.65a.68.68,0,0,1-.95,0L122.81,109.4a.66.66,0,0,1,0-.94l19.65-19.65a.66.66,0,0,1,.95,0l17.11,17.11,2.55,2.54A.66.66,0,0,1,163.07,109.4Z" fill="url(#linear-gradient)"/>
    <g clip-path="url(#clip-path)">
      <g>
        <polygon points="201.82 143.9 183.11 176.29 164.41 143.9 183.11 111.49 201.82 143.9" fill="#fff" opacity="0.3"/>
        <polygon points="222.18 108.57 203.47 140.97 184.76 108.57 203.47 76.17 222.18 108.57" fill="#fff" opacity="0.3"/>
        <polygon points="201.84 73.88 183.13 106.27 164.43 73.88 183.13 41.47 201.84 73.88" fill="#fff" opacity="0.3"/>
        <polygon points="222.17 179.07 203.46 211.46 184.75 179.07 203.46 146.66 222.17 179.07" fill="#fff" opacity="0.3"/>
        <polygon points="242.48 214.16 223.77 246.55 205.07 214.16 223.77 181.75 242.48 214.16" fill="#fff" opacity="0.3"/>
        <polygon points="242.5 144.14 223.79 176.54 205.09 144.14 223.79 111.74 242.5 144.14" fill="#fff" opacity="0.3"/>
        <polygon points="222.17 38.66 203.46 71.05 184.76 38.66 203.46 6.25 222.17 38.66" fill="#fff" opacity="0.3"/>
        <polygon points="242.49 73.75 223.78 106.15 205.08 73.75 223.78 41.35 242.49 73.75" fill="#fff" opacity="0.3"/>
        <polygon points="242.51 3.73 223.8 36.13 205.09 3.73 223.8 -28.67 242.51 3.73" fill="#fff" opacity="0.3"/>
      </g>
    </g>
  </g>
</svg>
