<?xml version="1.0" encoding="UTF-8"?>
<svg id="Layer_1" data-name="Layer 1" xmlns="http://www.w3.org/2000/svg" xmlns:xlink="http://www.w3.org/1999/xlink" viewBox="0 160 216 216">
  <defs>
    <style>
      .cls-1, .cls-2 {
        fill: none;
      }

      .cls-3 {
        fill: url(#linear-gradient);
      }

      .cls-2 {
        clip-path: url(#clippath);
      }

      .cls-4 {
        fill: #fff;
        opacity: .3;
      }
    </style>
    <linearGradient id="linear-gradient" x1="84.93" y1="3195.66" x2="84.93" y2="2979.47" gradientTransform="translate(0 3359.12) scale(1 -1)" gradientUnits="userSpaceOnUse">
      <stop offset=".32" stop-color="#fdb619"/>
      <stop offset=".54" stop-color="#e9a010"/>
      <stop offset="1" stop-color="#c47500"/>
    </linearGradient>
    <clipPath id="clippath">
      <path class="cls-1" d="m153.66,232.59c0-19.25-7.89-36.29-20.2-48.92-12.62-12.62-29.67-20.2-48.92-20.2s-36.29,7.58-48.6,20.2c-12.63,12.63-20.2,29.67-20.2,48.92,0,21.15,8.52,33.14,17.36,45.77,8.52,11.67,17.04,23.98,17.04,45.13,0,2.52,2.21,4.73,4.74,4.73h12.63s12.96.01,12.96.01v-55.82l-30.72-30.71c-.45-.45-.45-1.17,0-1.62l33.77-33.77c.45-.44,1.18-.44,1.63,0l33.77,33.77c.44.45.44,1.17,0,1.62l-4.38,4.37-26.07,26.07v56.09h15.04s11.02-.01,11.02-.01c2.52,0,4.42-2.21,4.42-4.73,0-21.15,8.52-33.46,17.04-45.13,8.84-12.63,17.67-24.62,17.67-45.77Zm-36.61,138.23c-1.27,1.27-2.84,1.9-4.74,1.9h-14.2c0,1.89-.95,3.78-1.89,4.73l-.32.32c-.94.94-2.84,1.89-4.42,1.89h-13.57c-1.89,0-3.47-.95-4.73-2.21-1.26-1.26-1.89-2.84-1.89-4.73h-14.21c-1.9,0-3.47-.63-4.74-1.9-1.26-1.26-2.2-2.84-2.2-4.73v-29.04h68.8v29.04c0,1.89-.63,3.47-1.89,4.73Zm-11.01-130.67l-21.06-21.06c-.28-.28-.74-.28-1.02,0l-21.06,21.06c-.28.28-.28.73,0,1.01l21.06,21.06c.28.28.74.28,1.02,0l18.33-18.33,2.73-2.73c.28-.28.28-.73,0-1.01Z"/>
    </clipPath>
  </defs>
  <path class="cls-3" d="m153.89,232.59c0-19.25-7.89-36.29-20.2-48.92-12.62-12.62-29.67-20.2-48.92-20.2s-36.29,7.58-48.6,20.2c-12.63,12.63-20.2,29.67-20.2,48.92,0,21.15,8.52,33.14,17.36,45.77,8.52,11.67,17.04,23.98,17.04,45.13,0,2.52,2.21,4.73,4.74,4.73h12.63s12.96.01,12.96.01v-55.82l-30.72-30.71c-.45-.45-.45-1.17,0-1.62l33.77-33.77c.45-.44,1.18-.44,1.63,0l33.77,33.77c.44.45.44,1.17,0,1.62l-4.38,4.37-26.07,26.07v56.09h15.04s11.02-.01,11.02-.01c2.52,0,4.42-2.21,4.42-4.73,0-21.15,8.52-33.46,17.04-45.13,8.84-12.63,17.67-24.62,17.67-45.77Zm-36.61,138.23c-1.27,1.27-2.84,1.9-4.74,1.9h-14.2c0,1.89-.95,3.78-1.89,4.73l-.32.32c-.94.94-2.84,1.89-4.42,1.89h-13.57c-1.89,0-3.47-.95-4.73-2.21-1.26-1.26-1.89-2.84-1.89-4.73h-14.21c-1.9,0-3.47-.63-4.74-1.9-1.26-1.26-2.2-2.84-2.2-4.73v-29.04h68.8v29.04c0,1.89-.63,3.47-1.89,4.73Zm-11.01-130.67l-21.06-21.06c-.28-.28-.74-.28-1.02,0l-21.06,21.06c-.28.28-.28.73,0,1.01l21.06,21.06c.28.28.74.28,1.02,0l18.33-18.33,2.73-2.73c.28-.28.28-.73,0-1.01Z"/>
  <g class="cls-2">
    <g>
      <polygon class="cls-4" points="39.76 146.38 19.87 111.96 0 146.38 19.87 180.82 39.76 146.38"/>
      <polygon class="cls-4" points="61.35 109.09 41.46 74.67 21.59 109.09 41.46 143.53 61.35 109.09"/>
      <polygon class="cls-4" points="82.98 146.63 63.1 112.21 43.22 146.63 63.1 181.07 82.98 146.63"/>
      <polygon class="cls-4" points="61.37 183.5 41.48 149.07 21.61 183.5 41.48 217.94 61.37 183.5"/>
      <polygon class="cls-4" points="82.97 71.72 63.09 37.29 43.21 71.72 63.09 106.15 82.97 71.72"/>
      <polygon class="cls-4" points="104.56 34.43 84.68 0 64.8 34.43 84.68 68.86 104.56 34.43"/>
      <polygon class="cls-4" points="126.19 71.97 106.31 37.54 86.43 71.97 106.31 106.4 126.19 71.97"/>
      <polygon class="cls-4" points="104.58 108.83 84.7 74.41 64.82 108.83 84.7 143.27 104.58 108.83"/>
      <polygon class="cls-4" points="104.57 183.64 84.68 149.21 64.81 183.64 84.68 218.07 104.57 183.64"/>
      <polygon class="cls-4" points="126.19 146.26 106.3 111.83 86.43 146.26 106.3 180.7 126.19 146.26"/>
      <polygon class="cls-4" points="147.78 108.97 127.89 74.54 108.02 108.97 127.89 143.4 147.78 108.97"/>
      <polygon class="cls-4" points="169.41 146.51 149.53 112.08 129.65 146.51 149.53 180.94 169.41 146.51"/>
      <polygon class="cls-4" points="147.8 183.38 127.91 148.95 108.04 183.38 127.91 217.81 147.8 183.38"/>
    </g>
  </g>
</svg>
