<?xml version="1.0" encoding="UTF-8"?>
<svg id="Layer_1" data-name="Layer 1" xmlns="http://www.w3.org/2000/svg" xmlns:xlink="http://www.w3.org/1999/xlink" viewBox="0 0 262.76 236.85">
  <defs>
    <style>
      .cls-1, .cls-2 {
        fill: none;
      }

      .cls-3 {
        fill: url(#linear-gradient);
      }

      .cls-2 {
        clip-path: url(#clippath);
      }

      .cls-4 {
        fill: #fff;
        opacity: .3;
      }
    </style>
    <linearGradient id="linear-gradient" x1="0" y1="107.28" x2="216.17" y2="107.28" gradientUnits="userSpaceOnUse">
      <stop offset=".32" stop-color="#fdb619"/>
      <stop offset=".54" stop-color="#e9a010"/>
      <stop offset="1" stop-color="#c47500"/>
    </linearGradient>
    <clipPath id="clippath">
      <path class="cls-1" d="m214.04,181.52l-40.85-40.92c8.52-14.34,13.31-31.16,13-49.12C185.36,41.74,144.88,1.08,95.13.02,42.2-1.1-1.02,42.05.02,94.96c.96,49.33,40.9,89.72,90.23,91.21,19.26.58,37.26-4.71,52.36-14.21l40.53,40.46c2.85,2.85,7.47,2.85,10.32,0l20.57-20.59c2.85-2.85,2.85-7.46,0-10.32Zm-76.05-89.16l-44.37,44.36c-.59.6-1.55.6-2.15,0l-44.36-44.36c-.59-.59-.59-1.54,0-2.13l44.36-44.36c.6-.59,1.56-.59,2.15,0l38.62,38.62,5.76,5.75c.59.59.59,1.54,0,2.13Zm-16.55-1.96l-3.67-3.67-24.62-24.62c-.38-.38-.99-.38-1.37,0l-28.29,28.29c-.38.38-.38.98,0,1.36l28.29,28.29c.38.38.99.38,1.37,0l28.29-28.29c.38-.38.38-.98,0-1.36Z"/>
    </clipPath>
  </defs>
  <path class="cls-3" d="m214.04,181.52l-40.85-40.92c8.52-14.34,13.31-31.16,13-49.12C185.36,41.74,144.88,1.08,95.13.02,42.2-1.1-1.02,42.05.02,94.96c.96,49.33,40.9,89.72,90.23,91.21,19.26.58,37.26-4.71,52.36-14.21l40.53,40.46c2.85,2.85,7.47,2.85,10.32,0l20.57-20.59c2.85-2.85,2.85-7.46,0-10.32Zm-76.05-89.16l-44.37,44.36c-.59.6-1.55.6-2.15,0l-44.36-44.36c-.59-.59-.59-1.54,0-2.13l44.36-44.36c.6-.59,1.56-.59,2.15,0l38.62,38.62,5.76,5.75c.59.59.59,1.54,0,2.13Zm-16.55-1.96l-3.67-3.67-24.62-24.62c-.38-.38-.99-.38-1.37,0l-28.29,28.29c-.38.38-.38.98,0,1.36l28.29,28.29c.38.38.99.38,1.37,0l28.29-28.29c.38-.38.38-.98,0-1.36Z"/>
  <g class="cls-2">
    <g>
      <polygon class="cls-4" points="128.47 163.29 138.24 201.82 99.98 191.02 90.2 152.48 128.47 163.29"/>
      <polygon class="cls-4" points="169.95 174.95 179.72 213.49 141.46 202.68 131.69 164.14 169.95 174.95"/>
      <polygon class="cls-4" points="159.27 132.96 169.03 171.5 130.78 160.69 121 122.15 159.27 132.96"/>
      <polygon class="cls-4" points="211.52 186.65 221.28 225.19 183.03 214.38 173.25 175.84 211.52 186.65"/>
      <polygon class="cls-4" points="253 198.31 262.76 236.85 224.51 226.04 214.73 187.5 253 198.31"/>
      <polygon class="cls-4" points="242.31 156.32 252.08 194.86 213.83 184.05 204.05 145.52 242.31 156.32"/>
      <polygon class="cls-4" points="201.11 144.98 210.88 183.52 172.62 172.71 162.84 134.17 201.11 144.98"/>
      <polygon class="cls-4" points="190.49 103.09 200.26 141.63 162 130.82 152.22 92.28 190.49 103.09"/>
      <polygon class="cls-4" points="231.97 114.75 241.74 153.29 203.48 142.48 193.71 103.94 231.97 114.75"/>
      <polygon class="cls-4" points="221.29 72.76 231.05 111.3 192.8 100.49 183.02 61.96 221.29 72.76"/>
    </g>
  </g>
</svg>