<?xml version="1.0" encoding="UTF-8"?>
<svg id="Layer_1" data-name="Layer 1" xmlns="http://www.w3.org/2000/svg" xmlns:xlink="http://www.w3.org/1999/xlink" viewBox="0 30 284.41 292.48">
  <defs>
    <style>
      .cls-1, .cls-2 {
        fill: none;
      }

      .cls-3 {
        fill: url(#linear-gradient);
      }

      .cls-2 {
        clip-path: url(#clippath);
      }

      .cls-4 {
        fill: #fff;
        opacity: .3;
      }
    </style>
    <linearGradient id="linear-gradient" x1="176.41" y1="76.51" x2="176.41" y2="215.51" gradientUnits="userSpaceOnUse">
      <stop offset=".32" stop-color="#fdb619"/>
      <stop offset=".54" stop-color="#e9a010"/>
      <stop offset="1" stop-color="#c47500"/>
    </linearGradient>
    <clipPath id="clippath">
      <path class="cls-1" d="m68.41,83.71v124.6c0,3.98,3.22,7.2,7.2,7.2h201.6c3.98,0,7.2-3.22,7.2-7.2v-124.6c0-3.98-3.22-7.2-7.2-7.2H75.61c-3.98,0-7.2,3.22-7.2,7.2Zm154.02,63.38l-44.93,44.93c-.6.59-1.58.59-2.18,0l-44.93-44.93c-.59-.6-.59-1.56,0-2.16l44.93-44.93c.6-.59,1.58-.59,2.18,0l39.1,39.11,5.83,5.82c.59.6.59,1.56,0,2.16Zm-19.93-1.69l-3.3-3.3-22.17-22.17c-.34-.34-.89-.34-1.23,0l-25.47,25.47c-.34.34-.34.88,0,1.22l25.47,25.47c.34.34.89.34,1.23,0l25.47-25.47c.34-.34.34-.88,0-1.22Z"/>
    </clipPath>
  </defs>
  <path class="cls-3" d="m68.41,83.71v124.6c0,3.98,3.22,7.2,7.2,7.2h201.6c3.98,0,7.2-3.22,7.2-7.2v-124.6c0-3.98-3.22-7.2-7.2-7.2H75.61c-3.98,0-7.2,3.22-7.2,7.2Zm154.02,63.38l-44.93,44.93c-.6.59-1.58.59-2.18,0l-44.93-44.93c-.59-.6-.59-1.56,0-2.16l44.93-44.93c.6-.59,1.58-.59,2.18,0l39.1,39.11,5.83,5.82c.59.6.59,1.56,0,2.16Zm-19.93-1.69l-3.3-3.3-22.17-22.17c-.34-.34-.89-.34-1.23,0l-25.47,25.47c-.34.34-.34.88,0,1.22l25.47,25.47c.34.34.89.34,1.23,0l25.47-25.47c.34-.34.34-.88,0-1.22Z"/>
  <g class="cls-2">
    <g>
      <polygon class="cls-4" points="39.76 146.09 19.87 180.52 0 146.09 19.87 111.66 39.76 146.09"/>
      <polygon class="cls-4" points="61.35 183.38 41.46 217.81 21.59 183.38 41.46 148.95 61.35 183.38"/>
      <polygon class="cls-4" points="82.98 145.85 63.1 180.27 43.22 145.85 63.1 111.41 82.98 145.85"/>
      <polygon class="cls-4" points="61.37 108.98 41.48 143.4 21.61 108.98 41.48 74.54 61.37 108.98"/>
      <polygon class="cls-4" points="82.97 220.76 63.09 255.19 43.21 220.76 63.09 186.32 82.97 220.76"/>
      <polygon class="cls-4" points="104.56 258.05 84.68 292.48 64.8 258.05 84.68 223.62 104.56 258.05"/>
      <polygon class="cls-4" points="126.19 220.51 106.31 254.94 86.43 220.51 106.31 186.08 126.19 220.51"/>
      <polygon class="cls-4" points="104.58 183.64 84.7 218.07 64.82 183.64 84.7 149.21 104.58 183.64"/>
      <polygon class="cls-4" points="82.98 71.55 63.09 105.98 43.22 71.55 63.09 37.12 82.98 71.55"/>
      <polygon class="cls-4" points="104.57 108.84 84.68 143.27 64.81 108.84 84.68 74.41 104.57 108.84"/>
      <polygon class="cls-4" points="126.2 71.3 106.31 105.73 86.44 71.3 106.31 36.87 126.2 71.3"/>
      <polygon class="cls-4" points="104.59 34.44 84.7 68.86 64.83 34.44 84.7 0 104.59 34.44"/>
      <polygon class="cls-4" points="126.19 146.22 106.3 180.64 86.43 146.22 106.3 111.78 126.19 146.22"/>
      <polygon class="cls-4" points="147.78 183.51 127.89 217.94 108.02 183.51 127.89 149.07 147.78 183.51"/>
      <polygon class="cls-4" points="147.8 109.1 127.91 143.53 108.04 109.1 127.91 74.67 147.8 109.1"/>
    </g>
  </g>
</svg>
