<svg id="Layer_1" data-name="Layer 1" xmlns="http://www.w3.org/2000/svg" xmlns:xlink="http://www.w3.org/1999/xlink" viewBox="0 0 216 216">
  <defs>
    <clipPath id="clip-path">
      <path d="M213.74-197.13a7.74,7.74,0,0,0-4.2-13L149.27-221a7.73,7.73,0,0,1-5.43-3.95l-29-54a7.73,7.73,0,0,0-13.62,0l-29,54A7.75,7.75,0,0,1,66.73-221L6.46-210.09a7.74,7.74,0,0,0-4.2,13L44.6-152.87a7.8,7.8,0,0,1,2.07,6.39L38.43-85.79a7.72,7.72,0,0,0,11,8l55.19-26.57a7.74,7.74,0,0,1,6.71,0l55.2,26.58a7.73,7.73,0,0,0,11-8l-8.22-60.71a7.79,7.79,0,0,1,2.07-6.38Zm-71.48,27-33.45,33.46a1.16,1.16,0,0,1-1.62,0L73.74-170.17a1.1,1.1,0,0,1,0-1.6l33.45-33.47a1.16,1.16,0,0,1,1.62,0l29.12,29.13,4.33,4.34A1.1,1.1,0,0,1,142.26-170.17Zm-12.11-.51-2.74-2.73L109-191.8a.72.72,0,0,0-1,0L86.87-170.68a.72.72,0,0,0,0,1L108-148.54a.72.72,0,0,0,1,0l21.13-21.12A.72.72,0,0,0,130.15-170.68Z" fill="none"/>
    </clipPath>
    <linearGradient id="linear-gradient" x1="108" y1="216" x2="108" gradientUnits="userSpaceOnUse">
      <stop offset="0.09" stop-color="#070"/>
      <stop offset="0.45" stop-color="#4cb900"/>
      <stop offset="0.64" stop-color="#6ed600"/>
    </linearGradient>
    <clipPath id="clip-path-2">
      <path d="M108,0A100.15,100.15,0,0,0,43.49,176.82L24.78,216l50.66-21A102.93,102.93,0,0,0,108,200.45,100.23,100.23,0,0,0,108,0Zm40.15,100-40,40a1.35,1.35,0,0,1-1.94,0l-40-40a1.31,1.31,0,0,1,0-1.91l40-40a1.4,1.4,0,0,1,1.94,0L143,92.94l5.19,5.19A1.31,1.31,0,0,1,148.15,100Zm-15.58-.64-25,25a.84.84,0,0,1-1.19,0l-25-25a.83.83,0,0,1,0-1.18l25-25a.82.82,0,0,1,1.19,0L129.35,95l3.22,3.25A.83.83,0,0,1,132.57,99.4Z" fill="none"/>
    </clipPath>
  </defs>
  <g clip-path="url(#clip-path)">
    <g>
      <polygon points="106.55 -11.07 86.6 23.46 66.67 -11.07 86.6 -45.61 106.55 -11.07" fill="#fff" opacity="0.3"/>
      <polygon points="128.21 26.33 108.26 60.87 88.33 26.33 108.26 -8.21 128.21 26.33" fill="#fff" opacity="0.3"/>
      <polygon points="149.9 -11.32 129.96 23.21 110.02 -11.32 129.96 -45.86 149.9 -11.32" fill="#fff" opacity="0.3"/>
    </g>
  </g>
  <g>
    <path d="M108,0A100.15,100.15,0,0,0,43.49,176.82L24.78,216l50.66-21A102.93,102.93,0,0,0,108,200.45,100.23,100.23,0,0,0,108,0Zm40.15,100-40,40a1.35,1.35,0,0,1-1.94,0l-40-40a1.31,1.31,0,0,1,0-1.91l40-40a1.4,1.4,0,0,1,1.94,0L143,92.94l5.19,5.19A1.31,1.31,0,0,1,148.15,100Zm-15.58-.64-25,25a.84.84,0,0,1-1.19,0l-25-25a.83.83,0,0,1,0-1.18l25-25a.82.82,0,0,1,1.19,0L129.35,95l3.22,3.25A.83.83,0,0,1,132.57,99.4Z" fill="url(#linear-gradient)"/>
    <g clip-path="url(#clip-path-2)">
      <g>
        <polygon points="150.87 202.49 130.99 236.92 111.11 202.49 130.99 168.06 150.87 202.49" fill="#fff" opacity="0.3"/>
        <polygon points="194.09 202.25 174.21 236.67 154.34 202.25 174.21 167.81 194.09 202.25" fill="#fff" opacity="0.3"/>
        <polygon points="172.48 165.38 152.6 199.8 132.72 165.38 152.6 130.94 172.48 165.38" fill="#fff" opacity="0.3"/>
        <polygon points="194.09 127.95 174.21 162.38 154.33 127.95 174.21 93.51 194.09 127.95" fill="#fff" opacity="0.3"/>
        <polygon points="215.68 165.24 195.8 199.67 175.92 165.24 195.8 130.81 215.68 165.24" fill="#fff" opacity="0.3"/>
        <polygon points="237.31 127.7 217.43 162.13 197.56 127.7 217.43 93.27 237.31 127.7" fill="#fff" opacity="0.3"/>
        <polygon points="215.7 90.83 195.82 125.26 175.94 90.83 195.82 56.4 215.7 90.83" fill="#fff" opacity="0.3"/>
      </g>
    </g>
  </g>
</svg>
