<?xml version="1.0" encoding="utf-8"?>
<!-- Generator: Adobe Illustrator 27.0.0, SVG Export Plug-In . SVG Version: 6.00 Build 0)  -->
<svg version="1.1" id="Layer_1" xmlns="http://www.w3.org/2000/svg" xmlns:xlink="http://www.w3.org/1999/xlink" x="0px" y="0px"
	 viewBox="0 0 216 184.1" style="enable-background:new 0 0 216 184.1;" xml:space="preserve">
<style type="text/css">
	.st0{fill:url(#SVGID_1_);}
	.st1{clip-path:url(#SVGID_00000067939592241508796830000008724417180925862065_);}
	.st2{opacity:0.3;fill:#FFFFFF;enable-background:new    ;}
</style>
<g>
	
		<linearGradient id="SVGID_1_" gradientUnits="userSpaceOnUse" x1="107.951" y1="31.8657" x2="107.951" y2="216" gradientTransform="matrix(1 0 0 -1 0 216)">
		<stop  offset="4.000000e-02" style="stop-color:#5B007F"/>
		<stop  offset="4.000000e-02" style="stop-color:#5B007F"/>
		<stop  offset="0.16" style="stop-color:#710FAD"/>
		<stop  offset="0.29" style="stop-color:#821BD1"/>
		<stop  offset="0.4" style="stop-color:#8F23EA"/>
		<stop  offset="0.5" style="stop-color:#9628FA"/>
		<stop  offset="0.58" style="stop-color:#992AFF"/>
	</linearGradient>
	<path class="st0" d="M187.4,57c15.8,0,28.5-12.8,28.5-28.5S203.2,0,187.4,0s-28.5,12.8-28.5,28.5c0,8.8,4,17,10.9,22.4L156.6,72
		l-9.3-10.8c3.2-5.5,1.3-12.5-4.3-15.7c-5.5-3.2-12.5-1.3-15.7,4.3c-3.2,5.5-1.3,12.5,4.3,15.7c1.7,1,3.7,1.5,5.7,1.5
		c1.3,0,2.6-0.2,3.8-0.7l11,12.8l-4.2,6.7c-23.2-13.2-52.6-5.1-65.8,18.1c-3.8,6.7-6,14.2-6.3,21.9L53.7,125
		c-2.2-14.7-16-24.9-30.7-22.7c-14.7,2.2-24.9,16-22.7,30.7s16,24.9,30.7,22.7c11.7-1.8,20.9-11,22.7-22.7l22.4,0.8
		c3.4,26.5,27.5,45.2,54,41.8c11.6-1.5,22.3-7.1,30.1-15.9l6.5,4.2c-2.9,7.8,1.2,16.5,9,19.3c7.8,2.9,16.5-1.2,19.3-9
		s-1.2-16.5-9-19.3c-5-1.8-10.6-0.9-14.7,2.5l-6.3-4.1c12.9-20.6,8.4-47.6-10.5-63l22.1-35.4C180.1,56.3,183.7,57,187.4,57z
		 M158.8,128.5c0.4,0.4,0.4,1.2,0,1.6c0,0,0,0,0,0l-33.5,33.5c-0.4,0.4-1.2,0.5-1.6,0c0,0,0,0,0,0l-33.5-33.5
		c-0.4-0.4-0.4-1.1,0-1.6c0,0,0,0,0,0L123.7,95c0.4-0.4,1.2-0.5,1.6,0c0,0,0,0,0,0l29.1,29.1L158.8,128.5z M145.8,129.6L125,150.5
		c-0.3,0.3-0.7,0.3-1,0l-21-20.9c-0.3-0.3-0.3-0.7,0-1c0,0,0,0,0,0l20.9-20.9c0.3-0.3,0.7-0.3,1,0l18.2,18.2l2.7,2.7
		C146.1,128.9,146.1,129.3,145.8,129.6C145.8,129.6,145.8,129.6,145.8,129.6L145.8,129.6z"/>
	<g>
		<defs>
			<path id="SVGID_00000116203562091263640310000004167804249239875217_" d="M187.4,57c15.8,0,28.5-12.8,28.5-28.5S203.2,0,187.4,0
				s-28.5,12.8-28.5,28.5c0,8.8,4,17,10.9,22.4L156.6,72l-9.3-10.8c3.2-5.5,1.3-12.5-4.3-15.7c-5.5-3.2-12.5-1.3-15.7,4.3
				c-3.2,5.5-1.3,12.5,4.3,15.7c1.7,1,3.7,1.5,5.7,1.5c1.3,0,2.6-0.2,3.8-0.7l11,12.8l-4.2,6.7c-23.2-13.2-52.6-5.1-65.8,18.1
				c-3.8,6.7-6,14.2-6.3,21.9L53.7,125c-2.2-14.7-16-24.9-30.7-22.7c-14.7,2.2-24.9,16-22.7,30.7s16,24.9,30.7,22.7
				c11.7-1.8,20.9-11,22.7-22.7l22.4,0.8c3.4,26.5,27.5,45.2,54,41.8c11.6-1.5,22.3-7.1,30.1-15.9l6.5,4.2c-2.9,7.8,1.2,16.5,9,19.3
				c7.8,2.9,16.5-1.2,19.3-9s-1.2-16.5-9-19.3c-5-1.8-10.6-0.9-14.7,2.5l-6.3-4.1c12.9-20.6,8.4-47.6-10.5-63l22.1-35.4
				C180.1,56.3,183.7,57,187.4,57z M158.8,128.5c0.4,0.4,0.4,1.2,0,1.6c0,0,0,0,0,0l-33.5,33.5c-0.4,0.4-1.2,0.5-1.6,0c0,0,0,0,0,0
				l-33.5-33.5c-0.4-0.4-0.4-1.1,0-1.6c0,0,0,0,0,0L123.7,95c0.4-0.4,1.2-0.5,1.6,0c0,0,0,0,0,0l29.1,29.1L158.8,128.5z
				 M145.8,129.6L125,150.5c-0.3,0.3-0.7,0.3-1,0l-21-20.9c-0.3-0.3-0.3-0.7,0-1c0,0,0,0,0,0l20.9-20.9c0.3-0.3,0.7-0.3,1,0
				l18.2,18.2l2.7,2.7C146.1,128.9,146.1,129.3,145.8,129.6C145.8,129.6,145.8,129.6,145.8,129.6L145.8,129.6z"/>
		</defs>
		<clipPath id="SVGID_00000176001178196475399910000015663522653181281703_">
			<use xlink:href="#SVGID_00000116203562091263640310000004167804249239875217_"  style="overflow:visible;"/>
		</clipPath>
		<g style="clip-path:url(#SVGID_00000176001178196475399910000015663522653181281703_);">
			<g>
				<polygon class="st2" points="185.2,7.3 165.3,41.7 145.5,7.3 165.3,-27.2 				"/>
				<polygon class="st2" points="206.8,-30.3 187,4.2 167.1,-30.3 187,-64.7 				"/>
				<polygon class="st2" points="206.8,44.7 186.9,79.1 167.1,44.7 186.9,10.2 				"/>
				<polygon class="st2" points="250.1,44.4 230.2,78.8 210.3,44.4 230.2,10 				"/>
				<polygon class="st2" points="228.4,7.5 208.6,42 188.7,7.5 208.6,-26.9 				"/>
			</g>
		</g>
	</g>
</g>
</svg>
