<?xml version="1.0" encoding="utf-8"?>
<!-- Generator: Adobe Illustrator 27.0.0, SVG Export Plug-In . SVG Version: 6.00 Build 0)  -->
<svg version="1.1" id="Layer_1" xmlns="http://www.w3.org/2000/svg" xmlns:xlink="http://www.w3.org/1999/xlink" x="0px" y="0px"
	 viewBox="0 0 96 96" style="enable-background:new 0 0 96 96;" xml:space="preserve">
<style type="text/css">
	.st0{fill:url(#SVGID_1_);}
	.st1{clip-path:url(#SVGID_00000029024182774445818490000001423366721612926890_);}
	.st2{opacity:0.3;fill:#FFFFFF;enable-background:new    ;}
</style>
<g>
	
		<linearGradient id="SVGID_1_" gradientUnits="userSpaceOnUse" x1="47.86" y1="16.1005" x2="47.86" y2="82.0664" gradientTransform="matrix(1 0 0 -1 0 97.08)">
		<stop  offset="0" style="stop-color:#554900"/>
		<stop  offset="0.19" style="stop-color:#816C0B"/>
		<stop  offset="0.61" style="stop-color:#EEC226"/>
		<stop  offset="0.68" style="stop-color:#FFD02A"/>
	</linearGradient>
	<path class="st0" d="M95,32.5L48.1,15.1c-0.2-0.1-0.3-0.1-0.5,0L0.7,32.5c-0.5,0.2-0.9,0.9-0.9,1.7c0,0.8,0.4,1.5,0.9,1.7l12.7,3.8
		v31c0,0.6,0.2,1.2,0.7,1.6C23,77.9,35,81,47.9,81s24.8-3.1,33.7-8.7c0.5-0.4,0.7-1,0.7-1.6v-31l11-3.3v17.5c-0.4,0.2-0.6,0.6-0.6,1
		v4.9h2.1v-4.9c0-0.4-0.3-0.8-0.6-1V36.1l0.8-0.2c0.5-0.1,0.9-0.9,0.9-1.7C95.9,33.4,95.5,32.7,95,32.5z M62.2,59.2l-14,14
		c-0.2,0.2-0.5,0.2-0.7,0l-14-14c-0.2-0.2-0.2-0.5,0-0.7l14-14c0.2-0.2,0.5-0.2,0.7,0l12.2,12.2l1.8,1.8
		C62.4,58.7,62.4,59,62.2,59.2C62.2,59.2,62.2,59.2,62.2,59.2L62.2,59.2z M56.8,59l-8.7,8.7c-0.1,0.1-0.3,0.1-0.4,0L38.9,59
		c-0.1-0.1-0.1-0.3,0-0.4c0,0,0,0,0,0l8.7-8.7c0.1-0.1,0.3-0.1,0.4,0l7.6,7.6l1.1,1.1C56.9,58.7,56.9,58.8,56.8,59
		C56.8,59,56.8,59,56.8,59L56.8,59z"/>
	<g>
		<defs>
			<path id="SVGID_00000085938088032962609730000011014918188128522123_" d="M95,32.5L48.1,15.1c-0.2-0.1-0.3-0.1-0.5,0L0.7,32.5
				c-0.5,0.2-0.9,0.9-0.9,1.7c0,0.8,0.4,1.5,0.9,1.7l12.7,3.8v31c0,0.6,0.2,1.2,0.7,1.6C23,77.9,35,81,47.9,81s24.8-3.1,33.7-8.7
				c0.5-0.4,0.7-1,0.7-1.6v-31l11-3.3v17.5c-0.4,0.2-0.6,0.6-0.6,1v4.9h2.1v-4.9c0-0.4-0.3-0.8-0.6-1V36.1l0.8-0.2
				c0.5-0.1,0.9-0.9,0.9-1.7C95.9,33.4,95.5,32.7,95,32.5z M62.2,59.2l-14,14c-0.2,0.2-0.5,0.2-0.7,0l-14-14c-0.2-0.2-0.2-0.5,0-0.7
				l14-14c0.2-0.2,0.5-0.2,0.7,0l12.2,12.2l1.8,1.8C62.4,58.7,62.4,59,62.2,59.2C62.2,59.2,62.2,59.2,62.2,59.2L62.2,59.2z M56.8,59
				l-8.7,8.7c-0.1,0.1-0.3,0.1-0.4,0L38.9,59c-0.1-0.1-0.1-0.3,0-0.4c0,0,0,0,0,0l8.7-8.7c0.1-0.1,0.3-0.1,0.4,0l7.6,7.6l1.1,1.1
				C56.9,58.7,56.9,58.8,56.8,59C56.8,59,56.8,59,56.8,59L56.8,59z"/>
		</defs>
		<clipPath id="SVGID_00000107587211738328163350000003192518376371597700_">
			<use xlink:href="#SVGID_00000085938088032962609730000011014918188128522123_"  style="overflow:visible;"/>
		</clipPath>
		<g style="clip-path:url(#SVGID_00000107587211738328163350000003192518376371597700_);">
			<g>
				<polygon class="st2" points="73.8,74.4 65.4,88.8 57.1,74.4 65.4,60 				"/>
				<polygon class="st2" points="82.8,58.7 74.5,73.1 66.2,58.7 74.5,44.4 				"/>
				<polygon class="st2" points="73.8,43.3 65.5,57.7 57.2,43.3 65.5,28.9 				"/>
				<polygon class="st2" points="82.8,90 74.5,104.4 66.2,90 74.5,75.6 				"/>
				<polygon class="st2" points="91.8,74.5 83.5,88.9 75.2,74.5 83.5,60.1 				"/>
				<polygon class="st2" points="82.8,27.7 74.5,42.1 66.2,27.7 74.5,13.3 				"/>
				<polygon class="st2" points="91.8,43.3 83.5,57.7 75.2,43.3 83.5,28.9 				"/>
				<polygon class="st2" points="100.8,27.6 92.5,42 84.2,27.6 92.5,13.2 				"/>
				<polygon class="st2" points="73.8,12.3 65.5,26.7 57.2,12.3 65.5,-2 				"/>
			</g>
		</g>
	</g>
</g>
</svg>
