<svg id="Layer_1" data-name="Layer 1" xmlns="http://www.w3.org/2000/svg" xmlns:xlink="http://www.w3.org/1999/xlink" viewBox="0 0 216 216">
  <defs>
    <linearGradient id="linear-gradient" x1="108" y1="216" x2="108" gradientUnits="userSpaceOnUse">
      <stop offset="0.14" stop-color="#c47500"/>
      <stop offset="0.19" stop-color="#cb7d03"/>
      <stop offset="0.4" stop-color="#e69c0f"/>
      <stop offset="0.58" stop-color="#f7af16"/>
      <stop offset="0.71" stop-color="#fdb619"/>
    </linearGradient>
    <clipPath id="clip-path">
      <path d="M105.52,60.35V215.61a.39.39,0,0,1-.66.28l-38-38.14a.39.39,0,0,1-.11-.27V102.62a.38.38,0,0,0-.2-.33L14.94,72.5A28.11,28.11,0,0,1,.87,48.14V.39A.39.39,0,0,1,1.45.05L105.33,60A.39.39,0,0,1,105.52,60.35Zm5,0V215.61a.39.39,0,0,0,.66.28l38-38.14a.39.39,0,0,0,.11-.27V102.62a.38.38,0,0,1,.2-.33L201.06,72.5a28.11,28.11,0,0,0,14.07-24.36V.39a.39.39,0,0,0-.58-.34L110.67,60A.39.39,0,0,0,110.48,60.35Z" fill="none"/>
    </clipPath>
  </defs>
  <g>
    <path d="M105.52,60.35V215.61a.39.39,0,0,1-.66.28l-38-38.14a.39.39,0,0,1-.11-.27V102.62a.38.38,0,0,0-.2-.33L14.94,72.5A28.11,28.11,0,0,1,.87,48.14V.39A.39.39,0,0,1,1.45.05L105.33,60A.39.39,0,0,1,105.52,60.35Zm5,0V215.61a.39.39,0,0,0,.66.28l38-38.14a.39.39,0,0,0,.11-.27V102.62a.38.38,0,0,1,.2-.33L201.06,72.5a28.11,28.11,0,0,0,14.07-24.36V.39a.39.39,0,0,0-.58-.34L110.67,60A.39.39,0,0,0,110.48,60.35Z" fill="url(#linear-gradient)"/>
    <g clip-path="url(#clip-path)">
      <g>
        <polygon points="106.27 69.86 86.39 104.29 66.52 69.86 86.39 35.42 106.27 69.86" fill="#fff" opacity="0.3"/>
        <polygon points="84.66 32.99 64.78 67.42 44.9 32.99 64.78 -1.44 84.66 32.99" fill="#fff" opacity="0.3"/>
        <polygon points="106.27 144.77 86.38 179.2 66.51 144.77 86.38 110.34 106.27 144.77" fill="#fff" opacity="0.3"/>
        <polygon points="149.49 144.53 129.6 178.95 109.73 144.53 129.6 110.09 149.49 144.53" fill="#fff" opacity="0.3"/>
        <polygon points="127.87 107.66 107.99 142.08 88.12 107.66 107.99 73.22 127.87 107.66" fill="#fff" opacity="0.3"/>
        <polygon points="106.27 -4.44 86.39 29.99 66.51 -4.44 86.39 -38.87 106.27 -4.44" fill="#fff" opacity="0.3"/>
        <polygon points="127.86 32.86 107.98 67.28 88.1 32.86 107.98 -1.58 127.86 32.86" fill="#fff" opacity="0.3"/>
        <polygon points="149.49 -4.68 129.61 29.74 109.73 -4.68 129.61 -39.12 149.49 -4.68" fill="#fff" opacity="0.3"/>
        <polygon points="149.48 70.23 129.6 104.66 109.73 70.23 129.6 35.8 149.48 70.23" fill="#fff" opacity="0.3"/>
        <polygon points="171.09 33.12 151.21 67.54 131.34 33.12 151.21 -1.32 171.09 33.12" fill="#fff" opacity="0.3"/>
      </g>
    </g>
  </g>
</svg>
