<svg id="Layer_1" data-name="Layer 1" xmlns="http://www.w3.org/2000/svg" xmlns:xlink="http://www.w3.org/1999/xlink" viewBox="0 0 216 216">
  <defs>
    <linearGradient id="linear-gradient" x1="108" y1="215.99" x2="108" y2="0.01" gradientUnits="userSpaceOnUse">
      <stop offset="0.14" stop-color="#c47500"/>
      <stop offset="0.19" stop-color="#cb7d03"/>
      <stop offset="0.4" stop-color="#e69c0f"/>
      <stop offset="0.58" stop-color="#f7af16"/>
      <stop offset="0.71" stop-color="#fdb619"/>
    </linearGradient>
    <clipPath id="clip-path">
      <path d="M118.78,6.87,81,69.4,71,49.5A69,69,0,0,0,41.74,87.92l-1.32,4.39H5.64l1.7-7.52A102.55,102.55,0,0,1,55.66,18.9L46.09,0ZM87.92,174.25A69,69,0,0,1,49.49,145L69.4,135,6.87,97.22,0,169.91l18.87-9.58a102.56,102.56,0,0,0,65.9,48.32l7.51,1.7V175.57Zm87.65-50.56-1.32,4.39A69,69,0,0,1,145,166.51L135,146.6,97.22,209.13,169.91,216l-9.58-18.89a102.62,102.62,0,0,0,48.33-65.89l1.69-7.52Zm21.54-68a102.56,102.56,0,0,0-65.9-48.32l-7.52-1.7V40.43l4.39,1.32A69.13,69.13,0,0,1,166.51,71L146.59,81l62.54,37.82L216,46.09Z" fill="none"/>
    </clipPath>
  </defs>
  <g>
    <path d="M118.78,6.87,81,69.4,71,49.5A69,69,0,0,0,41.74,87.92l-1.32,4.39H5.64l1.7-7.52A102.55,102.55,0,0,1,55.66,18.9L46.09,0ZM87.92,174.25A69,69,0,0,1,49.49,145L69.4,135,6.87,97.22,0,169.91l18.87-9.58a102.56,102.56,0,0,0,65.9,48.32l7.51,1.7V175.57Zm87.65-50.56-1.32,4.39A69,69,0,0,1,145,166.51L135,146.6,97.22,209.13,169.91,216l-9.58-18.89a102.62,102.62,0,0,0,48.33-65.89l1.69-7.52Zm21.54-68a102.56,102.56,0,0,0-65.9-48.32l-7.52-1.7V40.43l4.39,1.32A69.13,69.13,0,0,1,166.51,71L146.59,81l62.54,37.82L216,46.09Z" fill="url(#linear-gradient)"/>
    <g clip-path="url(#clip-path)">
      <g>
        <polygon points="129.22 201.25 110.47 233.71 91.72 201.25 110.47 168.77 129.22 201.25" fill="#fff" opacity="0.3"/>
        <polygon points="149.58 236.42 130.83 268.88 112.09 236.42 130.83 203.94 149.58 236.42" fill="#fff" opacity="0.3"/>
        <polygon points="169.98 201.01 151.23 233.48 132.49 201.01 151.23 168.53 169.98 201.01" fill="#fff" opacity="0.3"/>
        <polygon points="149.6 166.24 130.85 198.71 112.1 166.24 130.85 133.76 149.6 166.24" fill="#fff" opacity="0.3"/>
        <polygon points="190.35 236.66 171.6 269.13 152.86 236.66 171.6 204.18 190.35 236.66" fill="#fff" opacity="0.3"/>
        <polygon points="169.98 130.94 151.23 163.41 132.48 130.94 151.23 98.47 169.98 130.94" fill="#fff" opacity="0.3"/>
        <polygon points="190.34 166.11 171.59 198.58 152.85 166.11 171.59 133.64 190.34 166.11" fill="#fff" opacity="0.3"/>
        <polygon points="210.74 130.71 191.99 163.18 173.25 130.71 182.26 115.08 192.15 117.15 203.86 118.78 210.74 130.71" fill="#fff" opacity="0.3"/>
      </g>
    </g>
  </g>
</svg>
