<svg id="Layer_1" data-name="Layer 1" xmlns="http://www.w3.org/2000/svg" xmlns:xlink="http://www.w3.org/1999/xlink" viewBox="0 0 216 216">
  <defs>
    <linearGradient id="linear-gradient" x1="108" y1="216" x2="108" gradientUnits="userSpaceOnUse">
      <stop offset="0" stop-color="#c47500"/>
      <stop offset="0.46" stop-color="#eaa011"/>
      <stop offset="0.68" stop-color="#fdb619"/>
    </linearGradient>
    <clipPath id="clip-path">
      <path d="M141.09,4.93C56.18-20.44-20.44,56.17,4.93,141.09a104.39,104.39,0,0,0,70,70c84.92,25.37,161.53-51.24,136.16-136.16A104.39,104.39,0,0,0,141.09,4.93ZM144,190.85c0-.08.07-.15.1-.23a3.07,3.07,0,0,0-2-4.21l-.1,0a15.87,15.87,0,0,1-10-8.13c-1.58-3.12-3.23-6.49-5-10.07a11.13,11.13,0,0,1,1.18-11.67l.08-.1a4.82,4.82,0,0,0,1-3v-3.63a3,3,0,0,0-3-3h-5.86a6.11,6.11,0,0,1-5.32-3.1c-.78-1.38-1.58-2.78-2.37-4.21a5.27,5.27,0,0,0-5.19-2.72l-1.36.14a7.49,7.49,0,0,1-4.45-.88c-6.52-3.59-13-7.32-19.42-11.07a23.92,23.92,0,0,1-6.83-6L73.3,116a9.24,9.24,0,0,0-7.32-3.6h0a9,9,0,0,1-7.53-4.06c-5.18-7.87-10-15.65-14.09-22.92A21.82,21.82,0,0,1,42.1,69.78l0-.16A24.55,24.55,0,0,0,41,54.88l-.43-1.05A2,2,0,0,0,38,52.75l0,0a2.47,2.47,0,0,1-3.38-1.9q-.13-.81-.24-1.62a1.44,1.44,0,0,1,1.42-1.63h.81a.51.51,0,0,0,.42-.79h0a7.52,7.52,0,0,1,1-9.46A99.91,99.91,0,0,1,56.68,22.76,24.09,24.09,0,0,1,68.41,19.3h.06a.51.51,0,0,0,.15-1l-1-.33a.51.51,0,0,1,0-.94c1.07-.48,2.16-.94,3.25-1.38a38.85,38.85,0,0,1,11.73-2.72,354,354,0,0,1,41-.45h5.47a.5.5,0,0,0,0,1,133.43,133.43,0,0,1,25.11,7.24,1.15,1.15,0,0,1,.2,2.06c-1.27.8-2.6,1.71-4,2.71a5.57,5.57,0,0,1-4.06,1c-5.49-.84-10.82-1.51-16.14-2.18a.51.51,0,0,1-.42-.67c.46-1.4.83-2.61,1.17-3.69a1.11,1.11,0,0,0-1.06-1.44h-3.4a2.06,2.06,0,0,0-1.7.89c-.37.54-.75,1.11-1.17,1.7a2.12,2.12,0,0,0-.16,2.21c.33.65.65,1.31,1,2A.51.51,0,0,1,124,26l-11.08-.6a6.45,6.45,0,0,0-4.18,1.24c-1.17.86-2.34,1.74-3.51,2.68a3,3,0,0,0,.32,4.84l0,0A10.82,10.82,0,0,0,109,35.5l6.53,1.4a10.53,10.53,0,0,1,4.79,2.44l2.1,1.93a5.7,5.7,0,0,0,9.2-2.14l0-.09A2.26,2.26,0,0,0,131,36.5l0,0a3.06,3.06,0,0,1-1.09-2.28c-.05-2.07-.2-4-.23-5.77a.5.5,0,0,1,.57-.51c5.28.73,10.68,1.46,16.12,2.28a24.73,24.73,0,0,1,11.79,5.15c5,4,10.23,8.59,15.5,13.46a1.68,1.68,0,0,1-.41,2.75c-6.8,3.3-14.28,7-22.14,11.15a4.29,4.29,0,0,0-2.25,4c.05,1,.09,2.07.14,3.13a2.47,2.47,0,0,1-2.81,2.58l-.42-.06a4.4,4.4,0,0,0-3.63,1.12c-.45.41-.89.83-1.33,1.26A6,6,0,0,0,139,80c0,.13.05.27.07.4a6.46,6.46,0,0,1-2.22,6l-6.69,5.67a6.68,6.68,0,0,0-2.06,7.16l1.35,4.2a2.86,2.86,0,0,1-2.72,3.73h0a4.8,4.8,0,0,1-4-2.15c-.17-.27-.35-.54-.53-.8a12,12,0,0,0-10-5.38h-5.6a14.19,14.19,0,0,0-12.37,7.22l-.43.77a8.67,8.67,0,0,0,1.53,10.5q1.32,1.26,2.64,2.46a.51.51,0,0,0,.34.13h3a.53.53,0,0,0,.27-.08c1.41-.93,2.9-1.77,4.38-2.63a6,6,0,0,1,5.83-.11l0,0a3,3,0,0,1,1.51,3.1c-.26,1.56-.56,3.07-.84,4.56a3.49,3.49,0,0,0,3.06,4.11h.11a4.59,4.59,0,0,1,4,3.77c.15.83.31,1.66.46,2.49a5.86,5.86,0,0,0,5.74,4.79h4.62a16.65,16.65,0,0,0,6.57-1.35l6.79-2.88a8.1,8.1,0,0,1,5.89-.2l3.54,1.26a13.79,13.79,0,0,0,4.72.82h9.69a4.58,4.58,0,0,1,4.57,4.3v.1a5.75,5.75,0,0,0,6.1,5.38l3.18-.2a3.38,3.38,0,0,1,3.58,3.24c0,1,.06,2,.07,3a4.33,4.33,0,0,0,4.67,4.25c1.1-.09,2.18-.19,3.26-.3a.52.52,0,0,1,.3.06l.17.09a.52.52,0,0,1,.17.7A100.19,100.19,0,0,1,151,197.74,5.24,5.24,0,0,1,144,190.85Z" fill="none"/>
    </clipPath>
  </defs>
  <g>
    <path d="M141.09,4.93C56.18-20.44-20.44,56.17,4.93,141.09a104.39,104.39,0,0,0,70,70c84.92,25.37,161.53-51.24,136.16-136.16A104.39,104.39,0,0,0,141.09,4.93ZM144,190.85c0-.08.07-.15.1-.23a3.07,3.07,0,0,0-2-4.21l-.1,0a15.87,15.87,0,0,1-10-8.13c-1.58-3.12-3.23-6.49-5-10.07a11.13,11.13,0,0,1,1.18-11.67l.08-.1a4.82,4.82,0,0,0,1-3v-3.63a3,3,0,0,0-3-3h-5.86a6.11,6.11,0,0,1-5.32-3.1c-.78-1.38-1.58-2.78-2.37-4.21a5.27,5.27,0,0,0-5.19-2.72l-1.36.14a7.49,7.49,0,0,1-4.45-.88c-6.52-3.59-13-7.32-19.42-11.07a23.92,23.92,0,0,1-6.83-6L73.3,116a9.24,9.24,0,0,0-7.32-3.6h0a9,9,0,0,1-7.53-4.06c-5.18-7.87-10-15.65-14.09-22.92A21.82,21.82,0,0,1,42.1,69.78l0-.16A24.55,24.55,0,0,0,41,54.88l-.43-1.05A2,2,0,0,0,38,52.75l0,0a2.47,2.47,0,0,1-3.38-1.9q-.13-.81-.24-1.62a1.44,1.44,0,0,1,1.42-1.63h.81a.51.51,0,0,0,.42-.79h0a7.52,7.52,0,0,1,1-9.46A99.91,99.91,0,0,1,56.68,22.76,24.09,24.09,0,0,1,68.41,19.3h.06a.51.51,0,0,0,.15-1l-1-.33a.51.51,0,0,1,0-.94c1.07-.48,2.16-.94,3.25-1.38a38.85,38.85,0,0,1,11.73-2.72,354,354,0,0,1,41-.45h5.47a.5.5,0,0,0,0,1,133.43,133.43,0,0,1,25.11,7.24,1.15,1.15,0,0,1,.2,2.06c-1.27.8-2.6,1.71-4,2.71a5.57,5.57,0,0,1-4.06,1c-5.49-.84-10.82-1.51-16.14-2.18a.51.51,0,0,1-.42-.67c.46-1.4.83-2.61,1.17-3.69a1.11,1.11,0,0,0-1.06-1.44h-3.4a2.06,2.06,0,0,0-1.7.89c-.37.54-.75,1.11-1.17,1.7a2.12,2.12,0,0,0-.16,2.21c.33.65.65,1.31,1,2A.51.51,0,0,1,124,26l-11.08-.6a6.45,6.45,0,0,0-4.18,1.24c-1.17.86-2.34,1.74-3.51,2.68a3,3,0,0,0,.32,4.84l0,0A10.82,10.82,0,0,0,109,35.5l6.53,1.4a10.53,10.53,0,0,1,4.79,2.44l2.1,1.93a5.7,5.7,0,0,0,9.2-2.14l0-.09A2.26,2.26,0,0,0,131,36.5l0,0a3.06,3.06,0,0,1-1.09-2.28c-.05-2.07-.2-4-.23-5.77a.5.5,0,0,1,.57-.51c5.28.73,10.68,1.46,16.12,2.28a24.73,24.73,0,0,1,11.79,5.15c5,4,10.23,8.59,15.5,13.46a1.68,1.68,0,0,1-.41,2.75c-6.8,3.3-14.28,7-22.14,11.15a4.29,4.29,0,0,0-2.25,4c.05,1,.09,2.07.14,3.13a2.47,2.47,0,0,1-2.81,2.58l-.42-.06a4.4,4.4,0,0,0-3.63,1.12c-.45.41-.89.83-1.33,1.26A6,6,0,0,0,139,80c0,.13.05.27.07.4a6.46,6.46,0,0,1-2.22,6l-6.69,5.67a6.68,6.68,0,0,0-2.06,7.16l1.35,4.2a2.86,2.86,0,0,1-2.72,3.73h0a4.8,4.8,0,0,1-4-2.15c-.17-.27-.35-.54-.53-.8a12,12,0,0,0-10-5.38h-5.6a14.19,14.19,0,0,0-12.37,7.22l-.43.77a8.67,8.67,0,0,0,1.53,10.5q1.32,1.26,2.64,2.46a.51.51,0,0,0,.34.13h3a.53.53,0,0,0,.27-.08c1.41-.93,2.9-1.77,4.38-2.63a6,6,0,0,1,5.83-.11l0,0a3,3,0,0,1,1.51,3.1c-.26,1.56-.56,3.07-.84,4.56a3.49,3.49,0,0,0,3.06,4.11h.11a4.59,4.59,0,0,1,4,3.77c.15.83.31,1.66.46,2.49a5.86,5.86,0,0,0,5.74,4.79h4.62a16.65,16.65,0,0,0,6.57-1.35l6.79-2.88a8.1,8.1,0,0,1,5.89-.2l3.54,1.26a13.79,13.79,0,0,0,4.72.82h9.69a4.58,4.58,0,0,1,4.57,4.3v.1a5.75,5.75,0,0,0,6.1,5.38l3.18-.2a3.38,3.38,0,0,1,3.58,3.24c0,1,.06,2,.07,3a4.33,4.33,0,0,0,4.67,4.25c1.1-.09,2.18-.19,3.26-.3a.52.52,0,0,1,.3.06l.17.09a.52.52,0,0,1,.17.7A100.19,100.19,0,0,1,151,197.74,5.24,5.24,0,0,1,144,190.85Z" fill="url(#linear-gradient)"/>
    <g clip-path="url(#clip-path)">
      <g>
        <g>
          <polygon points="121.64 214.34 101.76 248.77 81.88 214.34 101.76 179.9 121.64 214.34" fill="#fff" opacity="0.3"/>
          <polygon points="143.25 176.91 123.37 211.34 103.49 176.91 123.37 142.48 143.25 176.91" fill="#fff" opacity="0.3"/>
          <polygon points="164.84 214.2 144.96 248.63 125.08 214.2 144.96 179.77 164.84 214.2" fill="#fff" opacity="0.3"/>
        </g>
        <g>
          <polygon points="13.97 102.62 -5.92 137.05 -25.79 102.62 -5.92 68.19 13.97 102.62" fill="#fff" opacity="0.3"/>
          <polygon points="35.56 139.92 15.68 174.34 -4.2 139.92 15.68 105.48 35.56 139.92" fill="#fff" opacity="0.3"/>
          <polygon points="57.19 102.38 37.31 136.8 17.43 102.38 37.31 67.94 57.19 102.38" fill="#fff" opacity="0.3"/>
          <polygon points="35.58 65.51 15.69 99.94 -4.18 65.51 15.69 31.07 35.58 65.51" fill="#fff" opacity="0.3"/>
          <polygon points="57.18 177.29 37.3 211.72 17.42 177.29 37.3 142.85 57.18 177.29" fill="#fff" opacity="0.3"/>
          <polygon points="78.77 214.58 58.89 249.01 39.01 214.58 58.89 180.15 78.77 214.58" fill="#fff" opacity="0.3"/>
          <polygon points="100.4 177.04 80.52 211.47 60.64 177.04 80.52 142.61 100.4 177.04" fill="#fff" opacity="0.3"/>
          <polygon points="78.79 140.18 58.91 174.6 39.03 140.18 58.91 105.74 78.79 140.18" fill="#fff" opacity="0.3"/>
          <polygon points="57.19 28.08 37.3 62.51 17.43 28.08 37.3 -6.35 57.19 28.08" fill="#fff" opacity="0.3"/>
          <polygon points="78.78 65.37 58.89 99.8 39.02 65.37 58.89 30.94 78.78 65.37" fill="#fff" opacity="0.3"/>
          <polygon points="78.8 -9.03 58.91 25.39 39.04 -9.03 58.91 -43.47 78.8 -9.03" fill="#fff" opacity="0.3"/>
          <polygon points="93 116.08 80.52 137.17 60.64 102.75 80.52 68.31 93 116.08" fill="#fff" opacity="0.3"/>
          <polygon points="121.99 140.04 102.11 174.47 82.23 140.04 94 120.08 121.99 140.04" fill="#fff" opacity="0.3"/>
        </g>
      </g>
    </g>
  </g>
</svg>
