<svg id="Layer_1" data-name="Layer 1" xmlns="http://www.w3.org/2000/svg" xmlns:xlink="http://www.w3.org/1999/xlink" viewBox="0 0 216 216">
  <defs>
    <linearGradient id="linear-gradient" x1="108" y1="215.7" x2="108" y2="0.3" gradientUnits="userSpaceOnUse">
      <stop offset="0" stop-color="#5605d6"/>
      <stop offset="0.37" stop-color="#7930ec"/>
      <stop offset="0.67" stop-color="#9857ff"/>
    </linearGradient>
  </defs>
  <path d="M211.1,3a.7.7,0,0,1,1.1.6v46a27.3,27.3,0,0,1-13.7,23.8l-63.2,36.5v78.4c0,.2,0,.4-.2.5l-26.6,26.7a.7.7,0,0,1-1,0L80.9,188.8c-.2-.1-.2-.3-.2-.5V109.9L17.5,73.4A27.3,27.3,0,0,1,3.8,49.6V3.6A.7.7,0,0,1,4.9,3L107.6,62.4a1.1,1.1,0,0,0,.8,0ZM129.6,21.6,108.5.5a.7.7,0,0,0-1,0L86.4,21.6a.9.9,0,0,0,0,1l21.1,21a.7.7,0,0,0,1,0l21.1-21A.9.9,0,0,0,129.6,21.6Z" fill="url(#linear-gradient)"/>
  <g opacity="0.3">
    <polygon points="84.7 171.9 80.7 178.8 80.7 165 84.7 171.9" fill="#fff"/>
    <path d="M86.4,174.3l19.9,34.5-2,3.4L80.9,188.8a.8.8,0,0,1-.2-.5v-4.1Z" fill="#fff"/>
    <polygon points="86.4 168.9 80.7 159 80.7 110 86.4 100 106.3 134.5 86.4 168.9" fill="#fff"/>
    <path d="M108,212.1l1.4,2.5-.9.9a.7.7,0,0,1-1,0l-.9-.9Z" fill="#fff"/>
    <polygon points="88.1 171.8 108 137.3 127.9 171.8 108 206.2 88.1 171.8" fill="#fff"/>
    <polygon points="131.3 172 135.3 165.1 135.3 178.9 131.3 172" fill="#fff"/>
    <path d="M129.6,174.7l5.7,9.9v3.7a.8.8,0,0,1-.2.5l-23.5,23.6-1.9-3.3Z" fill="#fff"/>
    <polygon points="135.4 109.8 135.3 109.9 135.3 158.7 129.6 168.7 109.7 134.2 129.6 99.8 135.4 109.8" fill="#fff"/>
  </g>
</svg>
