<svg id="Layer_1" data-name="Layer 1" xmlns="http://www.w3.org/2000/svg" xmlns:xlink="http://www.w3.org/1999/xlink" viewBox="0 0 216 216">
  <defs>
    <linearGradient id="linear-gradient" x1="108" y1="257.85" x2="108" y2="-69.75" gradientUnits="userSpaceOnUse">
      <stop offset="0.13" stop-color="#009e00"/>
      <stop offset="0.21" stop-color="#19ab00"/>
      <stop offset="0.38" stop-color="#47c200"/>
      <stop offset="0.5" stop-color="#63d100"/>
      <stop offset="0.58" stop-color="#6ed600"/>
      <stop offset="0.92" stop-color="#01a002"/>
    </linearGradient>
  </defs>
  <path d="M158.1,139.4a44.4,44.4,0,0,1-10.5,31.7,43.6,43.6,0,0,1-17.5,12.2c-7.1,2.7-15.3,4-24.8,4h-.7A48.2,48.2,0,0,1,67.1,169C59,158.8,56,146.4,58.8,134.2h39v9.1l9.3,5.4,9.4-5.4v-3.6c0-.5,0-3.3-.1-5.5l-.4-.3c-4.1-2.7-8.4-5.3-12.6-7.7L99,123.6l-2.2-1.2-8-4.6c-8.3-4.9-17.6-10.9-24-20.6a43.9,43.9,0,0,1,3.6-52.3C77.8,34,91.6,28.7,110.7,28.7h.7A48.2,48.2,0,0,1,148.9,47a40.7,40.7,0,0,1,8.2,35.2H118.2V72.7l-9.4-5.4-9.3,5.4V82l.2.2c1.5.9,3.7,2.2,4.8,2.7l2.1,1.3c4.4,2.8,9.1,5.3,13.7,7.8,6.2,3.3,12.7,6.7,18.6,11.1A47.6,47.6,0,0,1,158,138.3C158,138.7,158.1,139,158.1,139.4ZM120.3,12,108.5.2a.7.7,0,0,0-1,0L95.7,12a.7.7,0,0,0,0,1l11.8,11.8a.7.7,0,0,0,1,0L120.3,13A.7.7,0,0,0,120.3,12Zm0,190.4-11.8-11.8a.7.7,0,0,0-1,0L95.7,202.4a.7.7,0,0,0,0,1l11.8,11.8a.7.7,0,0,0,1,0l11.8-11.8A.7.7,0,0,0,120.3,202.4Z" fill="url(#linear-gradient)"/>
  <g>
    <path d="M116,133.9c-2.7-1.8-5.5-3.5-8.3-5.2l2.7-4.8,5.9,10.2Z" fill="#6ed600"/>
    <path d="M130.3,158.4,113.8,187c-2.1.2-4.3.3-6.5.3h-3.5a48.7,48.7,0,0,1-25.4-7.9l-2.6-1.8a47.2,47.2,0,0,1-8.7-8.6,41,41,0,0,1-9.2-29.3h0a54.3,54.3,0,0,1,.9-5.6h39v9.2l1.1.6,8.2,4.8,9.4-5.4v-3.6c0-.5,0-3.1-.1-5.4Z" fill="#6ed600"/>
    <path d="M132,161.2l9.2,15.9a42.9,42.9,0,0,1-11.1,6.2,54.9,54.9,0,0,1-12.7,3.2Z" fill="#6ed600"/>
    <path d="M147.6,171.1a50.3,50.3,0,0,1-4,4l-9.8-17,19.9-34.4,1.4,2.5a45.5,45.5,0,0,1,2.9,12.1c0,.3.1.7.1,1.1A44.4,44.4,0,0,1,147.6,171.1Z" fill="#6ed600"/>
  </g>
  <path d="M87.1,158,75.8,177.6a47.2,47.2,0,0,1-8.7-8.6,41,41,0,0,1-9.2-29.3h0l3.2-5.6H73.3Z" fill="#fff" opacity="0.3"/>
  <path d="M103.8,187.3a48.7,48.7,0,0,1-25.4-7.9l10.4-18Z" fill="#fff" opacity="0.3"/>
  <polygon points="76.5 134.2 97.8 134.2 97.8 139.9 88.8 155.4 76.5 134.2" fill="#fff" opacity="0.3"/>
  <path d="M116.3,134.1l-.3-.2c-2.7-1.8-5.5-3.5-8.3-5.2l2.7-4.8Z" fill="#fff" opacity="0.3"/>
  <path d="M130.3,158.4,113.8,187c-2.1.2-4.3.3-6.5.3h0L90.6,158.4l8.3-14.5,8.2,4.8,9.4-5.4v-3.6c0-.5,0-3.1-.1-5.4Z" fill="#fff" opacity="0.3"/>
  <path d="M141.2,177.1a42.9,42.9,0,0,1-11.1,6.2,54.9,54.9,0,0,1-12.7,3.2L132,161.2Z" fill="#fff" opacity="0.3"/>
  <path d="M147.6,171.1a50.3,50.3,0,0,1-4,4l-9.8-17,19.9-34.4,1.4,2.5a45.5,45.5,0,0,1,2.9,12.1c0,.3.1.7.1,1.1A44.4,44.4,0,0,1,147.6,171.1Z" fill="#fff" opacity="0.3"/>
</svg>
