<svg id="Layer_1" data-name="Layer 1" xmlns="http://www.w3.org/2000/svg" xmlns:xlink="http://www.w3.org/1999/xlink" viewBox="0 0 216 216">
  <defs>
    <linearGradient id="linear-gradient" x1="65.07" y1="175.74" x2="221.08" y2="29.69" gradientUnits="userSpaceOnUse">
      <stop offset="0.24" stop-color="#0328ff"/>
      <stop offset="0.76" stop-color="#1a82ff"/>
    </linearGradient>
  </defs>
  <path d="M215.4,59.2v59.3L201.9,105a.9.9,0,0,0-1,0l-45.7,45.7a22.7,22.7,0,0,1-9.8,5.9,22.3,22.3,0,0,1-14.2-.5l-.7-.3a22.9,22.9,0,0,1-6.9-4.5l-.4-.4-.8-.8L97.6,125.3l-.5-.2-.5.2L71.1,150.8a22.9,22.9,0,0,1-16.2,6.7H2.4a.7.7,0,0,1-.5-1.2L81.2,77.2a22.2,22.2,0,0,1,15.9-6.6,22.7,22.7,0,0,1,8.6,1.7,22.3,22.3,0,0,1,7.3,4.9l25.6,25.6a.7.7,0,0,0,1,0l29.5-29.5a.8.8,0,0,0,0-1.1L155.4,58.5h59.2A.8.8,0,0,1,215.4,59.2Z" fill="url(#linear-gradient)"/>
  <g opacity="0.3">
    <polygon points="38.8 145.4 31.8 157.5 6 157.5 4 154.1 29.3 128.9 38.8 145.4" fill="#fff"/>
    <polygon points="40.5 148.3 45.8 157.5 35.2 157.5 40.5 148.3" fill="#fff"/>
    <polygon points="40.5 142.3 31.5 126.7 56.8 101.5 60.4 107.9 40.5 142.3" fill="#fff"/>
    <polygon points="62.1 105.3 58.8 99.5 74.4 83.9 62.1 105.3" fill="#fff"/>
    <path d="M62.1,111.2,79.9,142l-8.8,8.8a22.9,22.9,0,0,1-16.2,6.7H49.1l-6.8-11.8Z" fill="#fff"/>
    <path d="M103.6,108.2,89.9,132l-7.8,7.8L63.9,108.2,82.4,76.1l1.8-1.4Z" fill="#fff"/>
    <path d="M118.5,82.8l-13.2,22.7L86.7,73.2a21.7,21.7,0,0,1,10.4-2.6,21.9,21.9,0,0,1,15.8,6.6Z" fill="#fff"/>
  </g>
  <path d="M125,145.5l-2.6,4.6L97.6,125.3l-.5-.2,8-14Z" fill="#fff" opacity="0.3"/>
  <path d="M131.2,156.1l-.7-.3a22.9,22.9,0,0,1-6.9-4.5l2.4-4.2Z" fill="#fff" opacity="0.3"/>
</svg>
