<svg id="Layer_1" data-name="Layer 1" xmlns="http://www.w3.org/2000/svg" xmlns:xlink="http://www.w3.org/1999/xlink" viewBox="0 0 216 216">
  <defs>
    <linearGradient id="linear-gradient" x1="41.81" y1="160.09" x2="210.27" y2="29.09" gradientUnits="userSpaceOnUse">
      <stop offset="0" stop-color="#ff8622"/>
      <stop offset="0.26" stop-color="#ff8321"/>
      <stop offset="0.43" stop-color="#fd7a1c"/>
      <stop offset="0.58" stop-color="#fa6b15"/>
      <stop offset="0.71" stop-color="#f7560a"/>
      <stop offset="0.78" stop-color="#f44703"/>
    </linearGradient>
  </defs>
  <path d="M114.1,6.5V54a35.1,35.1,0,0,0,10.2,24.7l30.5,30.5a.7.7,0,0,1,0,1l-47.1,47.2a.7.7,0,0,1-1,0L59.5,110.2a.7.7,0,0,1,0-1L96.9,71.7a34.6,34.6,0,0,0,10.3-24.6V1.3a1.2,1.2,0,0,0-2-.8L4.7,100.9a11.8,11.8,0,0,0,0,16.5l95.1,95.1a11.6,11.6,0,0,0,16.4,0l95.1-95.1a11.8,11.8,0,0,0,0-16.5L116.1,5.7A1.2,1.2,0,0,0,114.1,6.5Zm13.8,102-19.4,19.4a.7.7,0,0,1-1,0L88.1,108.5a.7.7,0,0,1,0-1l19.4-19.4a.7.7,0,0,1,1,0l19.4,19.4A.7.7,0,0,1,127.9,108.5Z" fill="url(#linear-gradient)"/>
  <path d="M114.8,61a34.4,34.4,0,0,0,4.6,11.6l1-1.8Zm7.3,12.7-.9,1.6c1,1.2,2,2.4,3.1,3.5l1.9,1.9Zm21.7-37.6L123.9,70.6l10.7,18.5,11.6,11.6,17.5-30.1Zm4,1.5L165.4,68l4.7-8.2Zm17.6,110.7-19.9,34.5.2.3,25.2-25.2Zm0-74.4-16.8,29.2,6.2,6.2a.7.7,0,0,1,0,1l-5.2,5.2,15.8,27.3,19.9-34.4ZM172.3,62l-5.2,8.9L187,105.4l10.5-18.2ZM187,110.8l-19.9,34.4,6,10.5,25.3-25.2Zm24.3-9.7L199.6,89.4l-10.9,18.8,11.7,20.2,10.9-10.9A11.6,11.6,0,0,0,211.3,101.1ZM117.5,7.3l22,22,2.6,4.4L122.2,68.1l-8.1-14V13.3Z" fill="#fff" opacity="0.3"/>
</svg>
