<svg id="Layer_1" data-name="Layer 1" xmlns="http://www.w3.org/2000/svg" xmlns:xlink="http://www.w3.org/1999/xlink" viewBox="0 0 216 216">
  <defs>
    <linearGradient id="linear-gradient" x1="32.92" y1="150.14" x2="204.91" y2="65.38" gradientUnits="userSpaceOnUse">
      <stop offset="0" stop-color="#ff8622"/>
      <stop offset="0.26" stop-color="#ff8321"/>
      <stop offset="0.43" stop-color="#fd7a1c"/>
      <stop offset="0.58" stop-color="#fa6b15"/>
      <stop offset="0.71" stop-color="#f7560a"/>
      <stop offset="0.78" stop-color="#f44703"/>
    </linearGradient>
  </defs>
  <path d="M105.9.6c.5-1,2.1-.3,2.1.8V53A35.7,35.7,0,0,1,97.4,78.4L56.6,119.3a.7.7,0,0,0,0,1l50.9,50.9a.7.7,0,0,0,1,0l50.9-50.9a.7.7,0,0,0,0-1L125.7,85.5A35.8,35.8,0,0,1,115.1,60V25.7a1.2,1.2,0,0,1,1.3-1.2A95.8,95.8,0,1,1,56.5,39.1a350.7,350.7,0,0,0,45-34.5Zm25.7,119L107.9,95.9a.7.7,0,0,0-1,0L83.2,119.6a.7.7,0,0,0,0,1l23.7,23.7a.7.7,0,0,0,1,0l23.7-23.7A.7.7,0,0,0,131.6,119.6Z" fill="url(#linear-gradient)"/>
  <g opacity="0.3">
    <g>
      <polygon points="115.5 47.6 115.1 48.3 115.1 47 115.5 47.6" fill="#fff"/>
      <path d="M128,26.2,117.2,44.9l-2.1-3.6V25.7a1.2,1.2,0,0,1,1.3-1.2A111.7,111.7,0,0,1,128,26.2Z" fill="#fff"/>
      <path d="M137.1,84.9l-4.4,7.6-7-7a35.7,35.7,0,0,1-10.6-25.4v-6l2.1-3.6Z" fill="#fff"/>
      <polygon points="153.6 113.5 134.8 94.7 138.8 87.8 153.6 113.5" fill="#fff"/>
      <path d="M158.7,47.4,138.8,81.8,118.9,47.4l11.9-20.5a95.8,95.8,0,0,1,20.4,7.5Z" fill="#fff"/>
      <path d="M162.5,41.1l-2.1,3.7-4.6-7.9C158.1,38.2,160.3,39.6,162.5,41.1Z" fill="#fff"/>
      <polygon points="160.4 119.6 140.5 85.2 160.4 50.7 180.3 85.2 160.4 119.6" fill="#fff"/>
      <path d="M189.4,69.4,182,82.2,162.1,47.7l2.8-4.8A95.2,95.2,0,0,1,189.4,69.4Z" fill="#fff"/>
      <path d="M203.8,119.1l-.2.4L183.7,85l7.4-12.8A94.3,94.3,0,0,1,203.8,119.1Z" fill="#fff"/>
    </g>
  </g>
</svg>
