<svg id="Layer_1" data-name="Layer 1" xmlns="http://www.w3.org/2000/svg" xmlns:xlink="http://www.w3.org/1999/xlink" viewBox="0 0 216 216">
  <defs>
    <linearGradient id="linear-gradient" x1="0.01" y1="108" x2="215.99" y2="108" gradientUnits="userSpaceOnUse">
      <stop offset="0.17" stop-color="#008ce2"/>
      <stop offset="0.57" stop-color="#00c1f5"/>
      <stop offset="0.75" stop-color="#00dbff"/>
    </linearGradient>
  </defs>
  <path d="M212.1,162.5,132.7,24.9a28.5,28.5,0,0,0-49.4,0L3.9,162.5a28.5,28.5,0,0,0,24.7,42.8H187.4A28.5,28.5,0,0,0,212.1,162.5ZM60.7,162,108,80l47.3,82Zm66.4-28.9L108,152.2,88.9,133.1,108,114Z" fill="url(#linear-gradient)"/>
  <path d="M131.9,23.7h-.1a28.4,28.4,0,0,0-32-11.7L92.6,24.4l19.8,34.4,19.9-34.4ZM112.4,64.4,92.5,98.8l2.3,4L108,80l17.6,30.4,6.7-11.6ZM90.8,27.1,70.9,61.5,90.8,95.9l19.9-34.4ZM86.1,162l4.7,8.2,4.8-8.2ZM89,17.9,90.8,21,95,13.8A25.6,25.6,0,0,0,89,17.9Zm1.8,83.5L70.9,135.8l2.5,4.2,19.8-34.4ZM69.2,64.5,49.3,98.9l19.9,34.5L89.1,98.9ZM86.8,20.1a32.7,32.7,0,0,0-3.5,4.8L66.6,54l2.6,4.6L89.1,24.1ZM82.5,162H60.7l10.9-18.9-2.4-4.2L49.3,173.3l18.5,32h2.8l18.5-32ZM64.9,56.7,45.1,91.2l2.5,4.4L67.5,61.1ZM47.6,101.6,27.7,136.1l19.9,34.4,19.9-34.4Zm-4.3-7.4L23.4,128.7l2.6,4.4L45.9,98.7ZM25.7,138.8,5.8,173.3,24.1,205l3,.3,18.5-32Zm-4-7.2L3.9,162.5A33.7,33.7,0,0,0,2,166.3l2.1,3.6L24,135.5ZM4.1,176,.5,182.1a28.6,28.6,0,0,0,19.9,22ZM.8,170.3a25.8,25.8,0,0,0-.8,6.8L2.4,173Z" fill="#fff" opacity="0.3"/>
</svg>
