<svg id="Layer_1" data-name="Layer 1" xmlns="http://www.w3.org/2000/svg" xmlns:xlink="http://www.w3.org/1999/xlink" viewBox="0 0 216 216">
  <defs>
    <linearGradient id="linear-gradient" x1="108" y1="211.7" x2="108" y2="-81.76" gradientUnits="userSpaceOnUse">
      <stop offset="0.06" stop-color="#d39700"/>
      <stop offset="0.21" stop-color="#dca800"/>
      <stop offset="0.56" stop-color="#edc900"/>
      <stop offset="0.75" stop-color="#f4d600"/>
    </linearGradient>
  </defs>
  <path d="M108,0A71.9,71.9,0,0,0,68.8,132.2l.7.5A21.2,21.2,0,0,1,78,146.8l2,12.9h0l1.2,8.1,1.6,10.6.7,4.2.8,5.5.2.4,23,23a.7.7,0,0,0,1,0l23-23,.2-.4.9-6.3.7-4.5,1.1-7.4,1.4-8.6h0l2.2-14.5a21.4,21.4,0,0,1,9.2-14.6h0A71.9,71.9,0,0,0,108,0Zm40.2,71.8L125.3,94.7l-16.8,16.8a.7.7,0,0,1-1,0L91.2,95.2,67.8,71.8a.9.9,0,0,1,0-1l39.7-39.7a.9.9,0,0,1,1,0l39.7,39.7A.9.9,0,0,1,148.2,71.8Zm-25.5-.5L108.2,85.8,93.6,71.3l14.6-14.5Z" fill="url(#linear-gradient)"/>
  <path d="M105.8,209.8,84.5,188.5l-.2-.4-.8-5.5,3.3-5.7Z" fill="#fff" opacity="0.3"/>
  <polygon points="85.1 174.5 82.8 178.4 81.2 167.8 85.1 174.5" fill="#fff" opacity="0.3"/>
  <path d="M106.7,137.1,86.8,171.5,80,159.7h0l-2-12.9a21.2,21.2,0,0,0-8.5-14.1l17.3-30.1Z" fill="#fff" opacity="0.3"/>
  <polygon points="128.3 174.3 108.4 208.8 88.5 174.3 108.4 139.9 128.3 174.3" fill="#fff" opacity="0.3"/>
  <path d="M147.2,132.2h0a21.4,21.4,0,0,0-9.2,14.6l-2.2,14.5h0l-5.8,9.9-19.9-34.4L130,102.4Z" fill="#fff" opacity="0.3"/>
  <path d="M132.6,181.8l-.9,6.3-.2.4-18.8,18.8,17.3-30Z" fill="#fff" opacity="0.3"/>
  <polygon points="134.4 169.9 133.3 177.3 131.8 174.6 134.4 169.9" fill="#fff" opacity="0.3"/>
</svg>
