<?xml version="1.0" encoding="utf-8"?>
<!-- Generator: Adobe Illustrator 25.2.1, SVG Export Plug-In . SVG Version: 6.00 Build 0)  -->
<svg version="1.1" id="Layer_1" xmlns="http://www.w3.org/2000/svg" xmlns:xlink="http://www.w3.org/1999/xlink" x="0px" y="0px"
	 viewBox="0 0 216 216" style="enable-background:new 0 0 216 216;" xml:space="preserve">
<style type="text/css">
	.st0{fill:url(#SVGID_1_);}
	.st1{opacity:0.3;fill:#FFFFFF;}
</style>
<g>
	<linearGradient id="SVGID_1_" gradientUnits="userSpaceOnUse" x1="21.0207" y1="143.5013" x2="206.883" y2="33.4504">
		<stop  offset="0" style="stop-color:#009EAA"/>
		<stop  offset="0.1388" style="stop-color:#02B0B2"/>
		<stop  offset="0.3551" style="stop-color:#03C6BC"/>
		<stop  offset="0.5628" style="stop-color:#05D3C2"/>
		<stop  offset="0.7508" style="stop-color:#05D8C4"/>
	</linearGradient>
	<path class="st0" d="M208.8,27.5H7.2c-4,0-7.2,3.2-7.2,7.2v114.6c0,4,3.2,7.2,7.2,7.2h36.3l32,32l32-32h101.3c4,0,7.2-3.2,7.2-7.2
		V34.7C216,30.7,212.8,27.5,208.8,27.5z M172.2,117.4H43.8V67.3h128.5V117.4z M87.3,92.1l-9.7,9.7l-9.7-9.7l9.7-9.7L87.3,92.1z
		 M147,92l-9.7,9.7l-9.7-9.7l9.7-9.7L147,92z M117,92.3l-9.7,9.7l-9.7-9.7l9.7-9.7L117,92.3z"/>
	<polygon class="st1" points="75.8,67.3 75.7,67.3 75.8,67.2 	"/>
	<path class="st1" d="M64.9,117.4l10.8,18.7l10.8-18.7H64.9z M75.8,142l-17.1,29.6l16.8,16.8l17.2-17.2L75.8,142z M129.9,117.4H108
		l11,19L129.9,117.4z M110.5,156.5h16.9l-8.4-14.6L110.5,156.5z M104.7,117.4H90L77.5,139l17.4,30.1l11.8-11.8l10.5-18.2
		L104.7,117.4z M75.8,67.2L75.8,67.2L75.8,67.2L75.8,67.2z M61.8,117.4H46.6l-12.3,21.3l11.8,20.4l10.3,10.3l17.7-30.7L61.8,117.4z
		 M32.5,141.8L24,156.5h17L32.5,141.8z"/>
	<g>
		<path class="st1" d="M31.2,138.6l-10.3,17.9H7.2c-4,0-7.2-3.2-7.2-7.2v-25.4l11.4-19.7L31.2,138.6z"/>
	</g>
</g>
</svg>
